<?xml version="1.0" encoding="UTF-8" standalone="no"?>
<!-- Created with Inkscape (http://www.inkscape.org/) -->

<svg version="1.1" id="svg543" width="170.66667" height="170.66667" viewBox="0 0 170.66667 170.66667" xml:space="preserve"
    xmlns="http://www.w3.org/2000/svg"
    xmlns:svg="http://www.w3.org/2000/svg">
    <defs id="defs186" />

    <ellipse style="fill:#f2f2f2;stroke-width:1.88976;stroke-dasharray:1.88976, 11.3386" id="path654" cx="85.344109" cy="88.188911" rx="67.97583" ry="68.425011" />
    <path style="fill:#000000;stroke-width:1.33333" d="M 77.344107,159.51211 C 50.786544,157.1926 30.535205,145.40094 20.967685,126.68607 18.613646,122.08138 15.336227,109.68146 14.099814,100.70191 12.763103,90.993928 15.769883,69.482029 20.135469,57.520038 22.437545,51.212202 23.49956,46.574792 22.702861,46.309226 19.779883,45.3349 21.699117,41.224264 26.856989,37.411863 39.454102,28.100804 42.722897,26.209301 56.67744,20.156133 c 25.175338,-10.9204975 40.767326,-9.964429 63.13439,3.871271 13.20482,8.168171 17.67745,12.678276 27.15688,27.384459 9.25657,14.360439 12.27772,25.171753 11.32167,40.515035 -0.8973,14.400272 -2.98806,20.785992 -11.03028,33.689212 -7.9148,12.69877 -17.04687,20.66486 -32.06448,27.9705 -13.76021,6.69396 -19.236759,7.55128 -37.851513,5.9255 z m 30.159173,-16.79726 c 13.49325,-6.14907 20.84327,-12.34728 28.30948,-23.87318 9.01243,-13.91283 11.66315,-29.100578 7.51616,-43.065018 C 140.10162,64.909146 126.94327,46.032759 119.21095,41.178064 102.66454,30.789491 100.3562,29.850043 89.557925,29.109913 c -9.14849,-0.627052 -11.689978,-0.2621 -20.334522,2.919992 -5.433612,2.000136 -14.269344,5.181718 -19.63496,7.070183 -10.944831,3.852108 -11.506098,4.559223 -18.238963,22.978442 -4.823368,13.195371 -6.202039,37.810937 -2.773175,49.51384 6.911013,23.58767 26.176256,34.83993 61.027268,35.64425 6.085092,0.14044 9.639448,-0.75745 17.899707,-4.52177 z M 85.826275,130.7452 c -0.422109,-1.1 -1.603278,-2 -2.62482,-2 -1.021541,0 -3.057348,-1.2 -4.524014,-2.66667 -2.28567,-2.28567 -2.666667,-4.44444 -2.666667,-15.10962 V 98.525947 l -4.80027,-1.473244 c -2.988669,-0.91725 -5.973844,-1.027054 -7.909934,-0.290952 -8.203779,3.11907 -25.060897,-8.516375 -22.396723,-15.459099 1.134506,-2.956478 6.34139,-3.657978 15.454885,-2.082168 4.57529,0.791112 10.776907,1.795037 13.781372,2.230946 l 5.462665,0.792563 0.862677,-11.082732 c 0.474473,-6.095502 0.866275,-14.498709 0.870669,-18.673793 0.0065,-6.225973 0.518135,-7.948378 2.844823,-9.578054 2.551484,-1.78713 3.322644,-1.72695 7.666667,0.598288 l 4.829836,2.58528 0.666667,18.890972 0.666666,18.890971 12.221726,2.328492 c 15.33305,2.921264 17.77827,4.181148 17.77827,9.16012 0,8.007723 -7.68791,10.739233 -21.34549,7.584023 -4.726508,-1.09193 -9.057344,-1.69875 -9.624079,-1.34849 -0.566735,0.35026 -1.030427,6.55236 -1.030427,13.78243 0,7.23008 -0.364193,14.09467 -0.809319,15.25465 -1.025428,2.67222 -4.365594,2.73998 -5.37518,0.10905 z" id="path600" />
</svg>
