<?xml version="1.0" encoding="UTF-8" standalone="no"?>
<!-- Created with Inkscape (http://www.inkscape.org/) -->

<svg version="1.1" id="svg192" width="170.66667" height="170.66667" viewBox="0 0 170.66667 170.66667"
    xmlns="http://www.w3.org/2000/svg"
    xmlns:svg="http://www.w3.org/2000/svg">
    <defs id="defs196" />
    <g id="g198">
        <circle style="fill:#ffffff;stroke-width:1.88976;stroke-dasharray:1.88976, 11.3386" id="path8607" cx="119.71371" cy="83.686371" r="39.424206" />
        <path style="fill:#ffffff;stroke:#000000;stroke-width:1px;stroke-linecap:butt;stroke-linejoin:miter;stroke-opacity:1" d="M 36.233214,48.173705 21.616406,73.907521 50.438281,75.348615 Z" id="path8663" />
        <rect style="fill:#ffffff;stroke-width:1.88976;stroke-dasharray:1.88976, 11.3386" id="rect8717" width="20.792923" height="21.410536" x="46.526741" y="87.906715" />
        <circle style="fill:#ffffff;stroke-width:1.88976;stroke-dasharray:1.88976, 11.3386" id="path8719" cx="20.792925" cy="108.08203" r="13.381584" />
        <path style="fill:#000000;stroke-width:1.33333" d="m 112.66667,126.77037 c -14.884497,-1.8452 -25.945626,-8.60845 -31.788779,-19.43703 -2.495187,-4.62411 -2.875955,-7.461023 -2.863345,-21.333338 0.0132,-14.476438 0.346409,-16.698301 3.49969,-23.333334 4.759792,-10.0154 10.586227,-15.078904 23.101064,-20.076137 13.55031,-5.410704 20.86992,-4.97203 33.33293,1.997687 9.77928,5.468878 15.90952,12.044368 21.4822,23.042461 7.64848,15.094824 3.97747,33.981031 -9.15836,47.116861 -5.96204,5.96204 -17.98456,12.06818 -24.86448,12.62847 -2.60751,0.21235 -8.34092,-0.0602 -12.74092,-0.60564 z m 21.39067,-10.58428 c 17.91445,-8.47505 26.17328,-28.617604 18.12006,-44.193247 -5.07162,-9.808987 -9.06517,-14.208879 -17.03588,-18.769257 -9.92296,-5.677342 -19.19449,-5.997914 -29.80818,-1.030649 -14.756697,6.906211 -21.333338,17.556702 -21.333338,34.548098 0,14.952555 6.934568,26.091715 18.565898,29.822825 13.86069,4.44625 21.4879,4.35476 31.49144,-0.37777 z m -16.39843,-7.89592 c -2.25042,-1.73085 -3.25797,-4.32479 -4.00145,-10.301756 l -0.99369,-7.988412 -6.88794,-0.693254 c -7.480073,-0.752849 -12.442495,-4.07064 -12.442495,-8.318837 0,-2.438285 0.658795,-2.540475 10.666665,-1.654576 l 10.66667,0.944216 V 68.763596 c 0,-12.384216 1.14373,-14.386046 6.56248,-11.486022 2.46628,1.319914 2.77085,2.707851 2.77085,12.626687 0,12.310915 -0.25425,11.961047 9.78658,13.466763 6.95945,1.043634 9.49181,3.267802 8.23373,7.23166 -1.07039,3.372486 -4.16632,3.875506 -13.30306,2.161444 l -4.59318,-0.861686 -0.39537,8.942518 c -0.21745,4.91838 -0.99536,9.12612 -1.7287,9.35054 -0.73333,0.22441 -2.68682,-0.63299 -4.34109,-1.90533 z M 15.825128,125.10056 C 6.4200497,122.59364 0.45136585,112.44912 2.9016429,103.13548 3.5090591,100.82665 6.1255557,97.076651 8.7160798,94.802142 12.711326,91.29427 14.481406,90.671168 20.379728,90.696316 c 4.55357,0.01941 7.945958,0.824764 9.828742,2.333334 4.469207,3.580925 8.447724,11.18021 8.453213,16.14631 0.0067,6.06456 -4.743993,13.38262 -10.155481,15.64369 -4.969583,2.07642 -5.870087,2.09637 -12.681074,0.28091 z M 29.333334,116 c 6.583079,-6.58308 0.972841,-18.666665 -8.666667,-18.666665 -9.973859,0 -14.9566848,11.164525 -8.060606,18.060605 4.22643,4.22643 12.796397,4.53694 16.727273,0.60606 z m 22.285799,-3.69271 -9.047535,-0.43129 0.380868,-12.934869 0.380868,-12.934865 5.661584,-1.191503 c 3.319091,-0.698515 8.559955,-0.699811 12.666667,-0.0031 l 7.005083,1.188306 0.943243,11.333333 c 1.254896,15.077938 0.330472,15.847348 -17.990778,14.973958 z m 11.252184,-13.512948 -0.462018,-6.79434 h -6.537982 -6.537983 v 6.593612 6.593616 l 6.333334,0.40731 c 3.483333,0.22402 6.633333,0.31434 7,0.20072 0.366667,-0.11361 0.458759,-3.26403 0.204649,-7.000918 z M 23.722707,78.766779 C 20.270195,78.284472 17.06714,77.511586 16.604808,77.049254 14.655764,75.100211 32.19445,42.666668 35.197454,42.666668 c 2.160519,0 6.289232,4.756453 9.258919,10.666666 1.289665,2.566667 4.100556,7.666667 6.246424,11.333334 4.204444,7.184173 4.895899,11.201305 2.363871,13.733334 -1.714003,1.714002 -18.222953,1.920353 -29.343961,0.366777 z m 22.943961,-6.24301 c 0,-2.13442 -10.153445,-19.121088 -11.221519,-18.773553 -1.431086,0.465654 -8.707422,14.182761 -8.749654,16.494556 -0.01585,0.867956 1.621172,1.828057 3.637839,2.133557 6.069092,0.919391 16.333334,1.010788 16.333334,0.14544 z" id="path8553" />
    </g>
</svg>
