<?xml version="1.0" encoding="UTF-8" standalone="no"?>
<!-- Created with Inkscape (http://www.inkscape.org/) -->

<svg version="1.1" id="svg500" width="170.66667" height="170.66667" viewBox="0 0 170.66667 170.66667"
    xmlns="http://www.w3.org/2000/svg"
    xmlns:svg="http://www.w3.org/2000/svg">
    <defs id="defs504" />
    <g id="g506">
        <circle style="fill:#ffffff;stroke-width:1.88976;stroke-dasharray:1.88976, 11.3386" id="path8425" cx="117.75794" cy="86.465622" r="43.232811" />
        <circle style="fill:#ffffff;stroke-width:1.88976;stroke-dasharray:1.88976, 11.3386" id="path8429" cx="55.379173" cy="30.057096" r="8.8524332" />
        <circle style="fill:#ffffff;stroke-width:1.88976;stroke-dasharray:1.88976, 11.3386" id="path8431" cx="56.202656" cy="69.378372" r="6.5878572" />
        <circle style="fill:#ffffff;stroke-width:1.88976;stroke-dasharray:1.88976, 11.3386" id="path8433" cx="57.026138" cy="139.78609" r="6.999598" />
        <path style="fill:#000000;stroke-width:1.33333" d="m 15.848238,157.81714 c -1.564846,-1.88552 -1.405464,-2.45254 1.170074,-4.16263 C 19.584743,151.95047 20,150.49419 20,143.19792 c 0,-4.66224 0.586386,-17.33906 1.303079,-28.1707 0.716695,-10.83164 1.484976,-37.208352 1.707295,-58.614922 0.384922,-37.063376 0.285373,-38.952114 -2.085711,-39.572166 -1.541731,-0.403172 -2.311873,-1.57568 -2.022367,-3.078964 0.394794,-2.050004 1.810622,-2.427834 9.097705,-2.427834 7.15363,0 8.706898,0.39854 9.078757,2.329448 0.292647,1.51959 -0.773381,2.794049 -3.066281,3.665809 -2.951987,1.122343 -3.447971,2.030476 -3.097018,5.670551 0.334247,3.4668 1.084967,4.427803 3.751208,4.801945 6.389806,0.896656 6.400983,6.86558 0.01286,6.86558 -2.711844,0 -3.91685,0.802302 -4.50581,3 -1.635685,6.103541 -0.929121,9.032265 2.492952,10.333334 4.251943,1.616585 4.251943,3.716748 0,5.333333 -2.77075,1.053438 -3.333333,2.146787 -3.333333,6.478158 0,4.089487 0.573851,5.360891 2.666667,5.908175 3.428861,0.896668 3.428861,4.448405 0,6.589765 -3.453108,2.156501 -3.66525,11.04384 -0.351034,14.706007 2.198622,2.429449 2.198622,2.644307 0,4.251977 -3.007165,2.198892 -3.245578,12.459424 -0.315633,13.583754 2.902613,1.11383 2.452311,5.49224 -0.666667,6.48217 -4.22535,1.34107 -3.687529,9.10682 0.7714,11.13844 3.917818,1.78508 3.69578,4.66292 -0.406588,5.26981 -3.970105,0.58733 -6.362268,10.92508 -2.528072,10.92508 1.010208,0 2.55036,0.85985 3.422563,1.9108 1.278961,1.54105 0.910604,2.35321 -1.903636,4.19717 -4.102717,2.6882 -4.115895,7.60988 -0.02233,8.34116 4.062041,0.72564 5.307898,2.505 3.380232,4.8277 -2.414875,2.90974 -15.088059,2.8184 -17.531995,-0.1264 z m 34.035518,-11.80742 c -3.95483,-6.03584 0.590464,-15.34305 7.492969,-15.34305 4.72359,0 7.17721,3.10283 7.013747,8.86952 -0.259509,9.15505 -9.923935,13.46773 -14.506716,6.47353 z m 9.871475,-6.35445 C 60.090703,136.74878 59.631128,136 57.511748,136 c -2.790622,0 -4.994038,4.26827 -3.473495,6.72856 1.626561,2.63183 5.285512,0.66488 5.716978,-3.07329 z m 48.911439,-8.56051 c -16.662667,-3.72353 -25.960618,-9.90375 -31.646254,-21.03483 -3.869667,-7.57585 -4.709123,-26.650247 -1.616321,-36.726595 1.237977,-4.033334 2.288416,-9.16506 2.334308,-11.403838 0.108867,-5.310744 7.325161,-10.949313 22.341017,-17.456509 9.99994,-4.333521 11.93257,-4.735043 20.00943,-4.157147 7.29047,0.52163 10.43357,1.546744 17.03153,5.554793 9.31538,5.658802 16.78434,13.610424 21.55004,22.942654 2.85936,5.59924 3.32958,8.308923 3.32958,19.186714 0,12.319258 -0.13864,12.893338 -5.05488,20.931428 -10.5697,17.28152 -30.06811,26.23271 -48.27845,22.16333 z m 24.79312,-11.42809 c 9.62116,-4.88181 17.57091,-14.00723 20.02768,-22.989537 C 157.4867,82.055354 150.6489,66.192107 136.17458,56.512432 124.54319,48.733956 118.9353,48.213464 103.48844,53.478698 96.803134,55.757461 90.347282,58.492097 89.142107,59.555666 85.490755,62.777988 81.186336,78.544899 80.977502,89.462282 80.650344,106.56522 88.590936,117.74029 104,121.86264 c 12.2873,3.28719 19.74977,2.73093 29.45979,-2.19597 z m -16.12645,-6.33333 C 117.33334,112.6 116.49753,112 115.47599,112 112.91074,112 112,109.00865 112,100.58302 c 0,-6.565101 -0.2932,-7.272468 -3.33035,-8.034745 -1.83169,-0.459725 -4.28643,-0.468983 -5.45498,-0.02057 -2.77595,1.065233 -10.932132,-2.841759 -12.655763,-6.062392 -2.455719,-4.588552 -0.237295,-5.506414 10.950053,-4.530528 L 112,82.849932 V 71.588225 c 0,-13.221556 1.68895,-16.075841 7.32666,-12.381873 3.12619,2.048356 3.34001,2.906277 3.34001,13.401203 0,12.248623 -0.47038,11.57368 9.33333,13.392447 8.4746,1.572192 9.33334,2.073796 9.33334,5.451768 0,4.721252 -4.89908,6.654593 -12.17981,4.806552 -3.11259,-0.790061 -6.14547,-1.135979 -6.73973,-0.768708 -0.59425,0.367272 -1.08046,4.832356 -1.08046,9.922406 0,7.33747 -0.41432,9.25465 -2,9.25465 -1.1,0 -2,-0.6 -2,-1.33333 z M 50.666668,76.000001 c -5.426324,-5.426324 -1.915755,-16 5.312165,-16 4.2405,0 9.354502,5.233862 9.354502,9.573751 0,3.371407 -5.834653,9.092916 -9.272727,9.092916 -1.5,0 -3.927274,-1.2 -5.39394,-2.666667 z m 9.083231,-5.68601 c 0.530649,-2.75544 -3.318419,-4.612135 -5.349898,-2.580656 -2.031479,2.031478 -0.174784,5.880546 2.580656,5.349897 1.277131,-0.245952 2.523289,-1.492111 2.769242,-2.769241 z M 48.296676,40.591062 c -4.420118,-3.095971 -4.237508,-14.104773 0.309385,-18.651668 6.566996,-6.566995 18.060607,-1.929652 18.060607,7.286939 0,5.472044 -7.020368,13.440335 -11.841448,13.440335 -1.960862,0 -4.898706,-0.934023 -6.528544,-2.075606 z m 10.94142,-6.6863 c 3.611876,-3.611875 2.024929,-8.571428 -2.742666,-8.571428 -4.160669,0 -7.076948,5.556128 -4.528198,8.627181 2.165336,2.609072 4.6249,2.590212 7.270864,-0.05575 z" id="path8423" />
    </g>
</svg>
