<?xml version="1.0" encoding="UTF-8" standalone="no"?>
<!-- Created with Inkscape (http://www.inkscape.org/) -->

<svg version="1.1" id="svg627" width="170.66667" height="170.66667" viewBox="0 0 170.66667 170.66667"
    xmlns="http://www.w3.org/2000/svg"
    xmlns:svg="http://www.w3.org/2000/svg">
    <defs id="defs631" />
    <g id="g633">
        <circle style="fill:#f9f9f9;stroke-width:1.88976;stroke-dasharray:1.88976, 11.3386" id="path8406" cx="122.39003" cy="87.392036" r="40.659431" />
        <circle style="fill:#ffffff;stroke-width:1.88976;stroke-dasharray:1.88976, 11.3386" id="path8408" cx="38.18898" cy="35.306797" r="21.719341" />
        <circle style="fill:#ffffff;stroke-width:1.88976;stroke-dasharray:1.88976, 11.3386" id="path8410" cx="37.159634" cy="96.244476" r="17.190189" />
        <circle style="fill:#f9f9f9;stroke-width:1.88976;stroke-dasharray:1.88976, 11.3386" id="path8412" cx="38.188984" cy="149.56494" r="11.837556" />
        <path style="fill:#000000;stroke-width:1.33333" d="M 29.751763,161.3997 C 21.064139,156.10248 19.95415,146.44586 27.200001,139.2 c 3.85152,-3.85152 5.462842,-4.53333 10.713577,-4.53333 7.805798,0 12.324488,2.92673 14.203958,9.19985 1.875537,6.25998 -0.323727,15.19279 -4.452458,18.08467 -4.038724,2.82883 -12.812468,2.55872 -17.913315,-0.55149 z m 13.486333,-6.1616 c 3.119909,-3.11991 2.723954,-10.80779 -0.649631,-12.61328 -4.128372,-2.20944 -10.52519,-0.29818 -12.001944,3.58598 -2.842654,7.47675 7.10451,14.57436 12.651575,9.0273 z M 118,130.7184 c -13.13047,-1.63331 -19.214294,-4.13934 -26.734538,-11.01242 -8.981804,-8.20887 -11.26546,-14.53895 -11.26546,-31.226813 0,-9.248247 0.697041,-14.24214 2.756013,-19.745238 1.515808,-4.051358 2.381075,-7.97277 1.922816,-8.714248 -2.297819,-3.717948 22.792109,-17.933831 34.478989,-19.535695 13.94413,-1.911256 31.30542,7.316187 40.7268,21.646081 7.57018,11.514262 8.53421,14.92804 7.85734,27.824037 -0.54192,10.325096 -0.97332,11.703476 -6.14934,19.647946 -5.94123,9.11893 -10.54748,13.16969 -20.35684,17.90189 -7.72086,3.72466 -13.12453,4.47221 -23.23578,3.21446 z m 27.89183,-15.21216 c 2.42051,-1.84621 6.41312,-6.49249 8.87247,-10.32505 10.7205,-16.706448 3.7862,-39.553147 -15.26895,-50.30721 -9.99166,-5.63894 -17.91696,-5.654948 -33.25586,-0.06717 -11.057137,4.027984 -11.438583,4.311166 -14.080998,10.453625 -10.574398,24.580853 -5.519225,46.495555 12.508178,54.224255 2.93333,1.25758 9.53333,2.66626 14.66667,3.13041 10.54178,0.95316 18.93357,-1.29305 26.55849,-7.10886 z m -24.55568,-3.4576 c -2.75568,-2.1171 -3.44607,-4.01054 -4,-10.97035 l -0.66948,-8.411622 -6.87584,-0.398706 c -7.3604,-0.426806 -13.790828,-4.652571 -13.790828,-9.062663 0,-2.001085 1.181464,-2.156836 10.479098,-1.381443 l 10.47911,0.873924 0.84264,-7.015556 c 0.46345,-3.858556 0.84785,-9.215556 0.85423,-11.904445 0.0128,-5.404973 1.8045,-6.730719 6.34492,-4.694881 2.78043,1.246693 3,2.199999 3,13.025183 V 83.78812 l 4.33334,0.882172 c 12.70169,2.585786 14.33333,3.344786 14.33333,6.667523 0,4.789612 -4.26672,6.58067 -11.39861,4.784838 -3.18024,-0.800791 -6.11655,-1.455984 -6.52515,-1.455984 -0.4086,0 -0.74291,3.550928 -0.74291,7.890951 0,7.90027 -0.86801,12.13501 -2.47598,12.0794 -0.47154,-0.0163 -2.35608,-1.18108 -4.18787,-2.58838 z m -92.917588,1.99937 C 18.20359,109.60526 13.766428,94.752801 19.757922,85.058359 c 3.559553,-5.759477 7.795308,-7.725593 16.638149,-7.722952 8.774183,0.0027 15.326966,3.302057 18.490855,9.310459 4.510352,8.565408 2.171344,17.807354 -6.414725,25.346024 -5.17444,4.54322 -12.587598,5.3033 -20.053639,2.05612 z m 16.812472,-8.16653 c 3.439158,-2.89386 4.1023,-4.40261 4.1023,-9.333337 0,-7.090324 -2.839165,-10.440413 -10.624875,-12.536888 -7.481148,-2.014464 -12.149889,0.319727 -14.404615,7.201753 -1.488573,4.543526 -1.392264,5.765167 0.78695,9.982062 4.421417,8.55567 13.132861,10.58273 20.14024,4.68641 z M 29.234833,57.557473 C 16.739679,49.633281 12.164529,40.247871 14.801946,27.950021 16.663955,19.26777 25.14165,9.9903982 32.469777,8.6156334 43.368732,6.5709771 55.052498,14.163306 59.993227,26.500883 c 4.106982,10.255619 0.487705,25.78087 -7.469171,32.03975 -5.437784,4.277362 -15.675746,3.845163 -23.289223,-0.98316 z M 49.321694,50.883436 C 59.558229,40.646901 53.296522,19.198206 39.305271,16.573432 24.986839,13.887278 16.183996,32.566613 26.033406,44.735885 c 4.525212,5.591048 11.683981,9.930783 16.381689,9.930783 1.717853,0 4.825822,-1.702455 6.906599,-3.783232 z" id="path8404" />
    </g>
</svg>
