<?xml version="1.0" encoding="UTF-8" standalone="no"?>
<!-- Created with Inkscape (http://www.inkscape.org/) -->

<svg version="1.1" id="svg1678" width="128" height="128" viewBox="0 0 128 128"
    xmlns="http://www.w3.org/2000/svg"
    xmlns:svg="http://www.w3.org/2000/svg">
    <defs id="defs1682" />
    <g id="g1684">
        <rect style="fill:#f9f9f9;stroke:none;stroke-width:1.88976;stroke-dasharray:1.88976, 11.3386" id="rect2227" width="108.54523" height="109.62605" x="10.190591" y="8.0289507" />
        <path style="fill:#000000" d="M 53.5,122.8527 C 51.3,122.39778 40.094655,122.11691 28.599233,122.22854 7.9775161,122.4288 7.6786841,122.40171 6.2167707,120.19995 5.0652755,118.46571 4.4429349,110.92395 3.4241664,86.358117 2.3307879,59.993191 2.3382046,50.779336 3.4688619,30.832339 4.9805639,4.1629717 5.7377584,1.2426194 10.838369,2.4095835 16.318698,3.6634231 23.580581,3.692919 66,2.6336357 c 52.71142,-1.3162917 53.60447,-1.3015589 56.06469,0.9249109 1.62351,1.4692547 1.89675,3.0396341 1.79856,10.3369494 -0.0637,4.732477 0.42294,21.654504 1.08136,37.604504 0.65842,15.95 1.01742,37.173694 0.79777,47.163763 -0.49808,22.654277 -0.52796,22.719547 -10.9242,23.861827 -10.01651,1.10057 -56.381611,1.3479 -61.31818,0.32711 z m 60.87609,-10.82879 c 0.92273,-0.92273 0.91395,-16.492274 -0.0262,-46.52391 -0.2755,-8.8 -0.46731,-24.415481 -0.42624,-34.701068 l 0.0747,-18.701069 -48.749145,0.533492 C 38.437115,12.924775 15.9375,13.338633 15.25,13.551038 c -0.91736,0.283422 -1.25201,3.920533 -1.257554,13.667577 -0.0042,7.304762 -0.446653,15.986283 -0.983329,19.292269 -0.999794,6.158842 1.074716,52.653223 2.717375,60.902436 l 0.779256,3.91332 15.997126,0.32633 C 41.301293,111.83245 52.325,112.38682 57,112.88491 c 10.380594,1.10599 56.09511,0.41998 57.37609,-0.861 z M 36.5,109.56717 c -0.55,-0.22543 -3.210659,-0.7088 -5.912576,-1.07417 -3.493062,-0.47235 -5.732464,-1.48419 -7.75,-3.50173 -3.173105,-3.1731 -3.530435,-6.302743 -1.401078,-12.271205 1.320413,-3.70104 1.289668,-3.810388 -1.473024,-5.239032 -4.933419,-2.55117 -4.994485,-7.961517 -0.103021,-9.127552 4.035912,-0.962087 5.025395,-2.152476 6.765922,-8.139676 1.880706,-6.469404 5.189297,-9.940555 10.245558,-10.748953 8.494862,-1.358164 6.433008,0.808941 22.80094,-23.964852 4.723972,-7.15 9.291152,-13.5625 10.149289,-14.25 4.209388,-3.372369 11.014302,0.281733 9.768481,5.245478 -0.355603,1.416837 -4.621836,8.52247 -9.480517,15.790295 C 59.064166,58.80857 55.342347,66.145414 54.103151,73.84012 c -0.53596,3.32801 -1.43623,6.913726 -2.000599,7.968259 -1.98525,3.709474 -8.118279,8.170501 -12.110463,8.808877 -2.261677,0.361656 -3.690789,1.06124 -3.337069,1.633572 0.853847,1.381553 11.439106,0.402744 19.158109,-1.771533 8.511252,-2.397436 10.316391,-4.962253 14.668402,-20.841472 4.140718,-15.108275 7.410208,-22.133955 12.107909,-26.018217 8.497149,-7.025809 21.30644,-7.533052 24.30029,-0.962281 2.50817,5.504842 0.33832,10.647065 -4.93801,11.702332 -4.457884,0.891576 -8.48358,4.067179 -9.96966,7.864397 C 91.276919,64.025824 90.131274,66.85 89.436182,68.5 c -0.695092,1.65 -2.029915,6.6 -2.966274,11 -2.485465,11.679329 -4.872372,15.683872 -13.556808,22.74442 -6.586336,5.35477 -11.680237,6.88638 -24.4131,7.34039 -6.05,0.21572 -11.45,0.20778 -12,-0.0176 z m 7.152262,-28.764886 c 1.535357,-1.535357 2.586055,-3.79253 2.68507,-5.768225 0.132484,-2.643544 -0.542185,-3.822593 -3.635946,-6.354162 -5.423893,-4.438274 -6.699931,-3.43687 -11.485325,9.013415 -1.097857,2.856322 -1.708093,5.487238 -1.356082,5.84648 0.352012,0.359242 3.031739,0.457806 5.954951,0.219031 3.98002,-0.325098 5.948462,-1.06767 7.837332,-2.956539 z" id="path2168" />
    </g>
</svg>
