<?xml version="1.0" encoding="UTF-8" standalone="no"?>
<!-- Created with Inkscape (http://www.inkscape.org/) -->

<svg version="1.1" id="svg627" width="170.66667" height="170.66667" viewBox="0 0 170.66667 170.66667" xml:space="preserve"
    xmlns="http://www.w3.org/2000/svg"
    xmlns:svg="http://www.w3.org/2000/svg">
    <defs id="defs631" />
    <path style="fill:#000000;stroke-width:1.63002" d="m 34.469051,157.22734 c -1.353678,-3.23981 -2.440282,-9.76508 -2.414677,-14.50057 0.0256,-4.73549 -1.231258,-25.66414 -2.793028,-46.508114 L 26.42176,58.32053 h -5.240675 c -8.765963,0 -10.692781,-3.449561 -9.441836,-16.903611 0.594765,-6.396761 2.120299,-12.721133 3.393152,-14.066902 1.774804,-1.876476 7.890952,-2.634561 26.301765,-3.260054 l 23.989205,-0.815012 0.528965,-6.49944 C 66.805091,6.2976576 67.252058,6.1267798 92.761003,6.5264278 118.46131,6.9290746 120.76234,7.8256575 119.68909,17.018793 l -0.63522,5.441144 11.4904,0.07099 c 14.29083,0.08828 25.29942,2.13236 27.16515,5.044021 1.79582,2.802532 -0.0722,30.862241 -2.23673,33.59813 -0.88661,1.120644 -3.24672,2.037534 -5.2447,2.037534 -3.53163,0 -3.66438,0.640406 -4.77216,23.021203 -0.62671,12.661662 -0.62768,34.667015 -0.001,48.900805 l 1.1368,25.8796 h -42.37564 c -23.306468,0 -47.980127,0.47377 -54.830348,1.05284 l -12.454944,1.05282 z m 19.882485,-8.32879 C 54.537629,148.7639 53.633895,141.71531 52.34324,133.23509 50.981125,124.28537 49.984323,105.6777 49.967352,88.883535 L 49.938112,59.950556 H 44.798901 39.65969 l 1.032544,23.227885 c 2.142363,48.194149 3.015651,64.040569 3.640322,66.056119 0.431466,1.39217 2.134521,1.71984 5.162255,0.99323 2.485102,-0.5964 4.670627,-1.19456 4.856722,-1.32924 z m 26.076,-6.22413 c -0.497787,-3.81019 -2.020573,-12.94863 -3.383966,-20.30764 -1.465025,-7.90756 -2.467957,-22.574608 -2.452147,-35.860582 0.01467,-12.364315 -0.02493,-23.441742 -0.08807,-24.616504 -0.07834,-1.457215 -2.057175,-1.975174 -6.227427,-1.630027 l -6.112607,0.505903 -0.530525,24.450404 c -0.498835,22.989846 1.259653,44.299376 4.808794,58.273466 1.47677,5.8145 1.877719,6.1126 8.22175,6.1126 h 6.669269 z m 27.522924,2.44504 c -2.09166,-10.10716 -4.21882,-41.73961 -4.22009,-62.756032 l -0.001,-22.412872 h -8.150142 -8.150135 v 27.209169 c 0,23.298375 2.469249,48.912355 5.823163,60.404775 0.364635,1.24945 3.501606,2.03754 8.110424,2.03754 7.33725,0 7.49375,-0.10648 6.58814,-4.48258 z m 25.34684,-38.71314 c -0.40659,-29.344981 -1.15865,-42.749049 -2.44504,-43.578255 -1.02181,-0.658659 -4.54593,-1.208793 -7.83136,-1.222521 l -5.97353,-0.02496 -1.16378,12.41925 c -1.82888,19.516905 1.63413,68.589686 5.25359,74.446066 0.45375,0.73419 3.50752,1.11127 6.78616,0.838 l 5.96117,-0.49688 z m 13.08227,-62.126232 c 0.52894,-6.650534 0.15844,-7.687493 -3.20325,-8.965606 -2.14765,-0.816536 -28.92811,-0.975649 -61.559997,-0.365753 l -57.758639,1.079519 v 5.27406 5.27406 l 21.597857,0.962396 c 11.878822,0.529317 29.299735,0.950754 38.71314,0.936527 9.413406,-0.01418 24.083659,0.623581 32.600539,1.417351 8.5169,0.793768 18.52883,1.547742 22.24875,1.675498 l 6.76347,0.232281 z M 97.616403,23.027652 c 6.051477,-0.571525 11.002687,-1.556739 11.002687,-2.189368 0,-1.279208 -29.445361,-3.706898 -30.627137,-2.525122 -0.410367,0.410367 -0.31177,1.878023 0.219105,3.261461 1.071138,2.791344 3.393573,2.965242 19.405345,1.453029 z" id="path308" />
</svg>
