<?xml version="1.0" encoding="UTF-8" standalone="no"?>
<!-- Created with Inkscape (http://www.inkscape.org/) -->

<svg version="1.1" id="svg627" width="170.66667" height="170.66667" viewBox="0 0 170.66667 170.66667" xml:space="preserve"
    xmlns="http://www.w3.org/2000/svg"
    xmlns:svg="http://www.w3.org/2000/svg">
    <defs id="defs631">
        <pattern id="EMFhbasepattern" patternUnits="userSpaceOnUse" width="6" height="6" x="0" y="0" />
    </defs>
    <rect style="fill:#ffffff;fill-opacity:1;stroke:none;stroke-width:72.9064;stroke-linejoin:bevel;stroke-opacity:0" id="rect369" width="144.64474" height="150.67987" x="13.057964" y="11.252128" />


    <path style="fill:#000000;stroke-width:0.21909" d="m 37.808056,169.80487 c -5.068999,-0.13048 -7.942382,-0.30696 -10.187701,-0.62575 -4.605088,-0.65381 -6.413087,-0.75458 -8.47465,-0.47231 -5.082177,0.69586 -7.986873,-0.04 -10.4182222,-2.63931 C 6.713122,163.91399 6.1858278,162.04977 5.4467794,154.46875 4.8885692,148.74273 4.6819199,145.31156 4.0037851,130.50946 3.6441687,122.65988 3.0078033,109.63192 2.5896394,101.55844 1.1395541,73.561673 0.87891666,64.307364 0.87117236,40.541786 0.86295889,15.336426 1.3912178,4.8697479 2.7071028,4.1655078 4.2254504,3.352913 15.568716,2.5510003 33.585226,1.9825777 57.107597,1.2404446 113.92051,0.73004477 133.38087,1.0860265 c 20.63025,0.3773819 26.33768,0.9369626 29.99717,2.9410528 2.27931,1.2482477 2.86603,2.5793513 3.39588,7.7043307 1.20859,11.690208 1.858,44.020052 2.12781,105.93017 0.1889,43.34527 0.17635,43.5186 -3.41249,47.12178 -2.61538,2.62584 -5.34855,3.55062 -11.56069,3.91163 -4.85174,0.28195 -16.03395,0.60962 -30.73538,0.90063 -14.74748,0.29192 -76.311713,0.44279 -85.385114,0.20925 z m 73.663784,-12.24822 c 28.31424,-0.64975 33.24912,-0.9132 42.58276,-2.27324 l 1.83196,-0.26694 -0.0228,-13.03587 C 155.81008,111.28992 155.38045,23.37537 155.26247,18.938781 L 155.13368,14.096186 146.01,13.950252 C 96.947221,13.165488 73.548789,12.939796 41.065274,12.937999 l -28.779403,-0.0016 0.131979,5.860666 c 0.07259,3.223366 0.185373,10.593016 0.250632,16.377 0.226332,20.060082 0.890024,39.184957 2.29994,66.274815 1.447732,27.81645 3.24913,51.5927 4.169613,55.03377 0.200689,0.75024 0.290191,0.81999 1.233862,0.9615 0.559613,0.0839 2.948171,0.22804 5.307907,0.32026 5.956477,0.23278 73.748702,0.0686 85.792036,-0.20777 z m -16.478723,-3.98046 c -1.953817,-0.0927 -4.100833,-0.28244 -4.771148,-0.42159 -1.792378,-0.3721 -1.976855,-0.75261 -1.961012,-4.04495 0.007,-1.45073 0.141854,-3.22924 0.299718,-3.95224 0.349199,-1.5993 1.025831,-3.09699 1.477475,-3.2703 1.14992,-0.44127 42.32815,-0.27226 55.91909,0.2295 3.47195,0.12818 3.61086,0.15124 4.10162,0.68077 0.84588,0.91272 1.45221,2.82423 1.47895,4.66249 0.0206,1.41831 -0.0665,1.82489 -0.63152,2.9482 -0.8761,1.74163 -1.80926,2.44676 -3.61318,2.73023 -2.72363,0.42799 -14.67306,0.66868 -31.65855,0.63767 -9.39898,-0.0172 -18.687626,-0.10706 -20.641443,-0.19978 z m 25.229603,-18.88394 c -4.17189,-3.08013 -19.57368,-18.112 -27.178234,-26.52546 -2.568228,-2.84141 -2.696464,-3.05555 -2.275337,-3.79941 0.180009,-0.31796 0.721653,-0.78428 1.203652,-1.03626 0.807836,-0.42232 1.180745,-0.45358 4.769143,-0.39979 3.650346,0.0547 5.195326,-0.0663 7.992866,-0.62608 l 1.15023,-0.23015 0.007,-6.721497 c 0.008,-7.266915 0.25037,-12.608207 0.65686,-14.461701 0.32648,-1.488681 1.25227,-2.575053 2.47802,-2.907834 0.706,-0.191678 1.70026,-0.169973 4.41656,0.09642 4.77738,0.46852 6.02785,0.554849 11.72133,0.809195 5.19813,0.232218 8.19431,0.517101 9.35334,0.889333 1.19325,0.383227 1.2295,0.74943 1.04947,10.603398 l -0.16131,8.828949 0.52083,0.335145 c 0.76908,0.494892 2.83095,0.806932 5.33202,0.806932 2.81652,0 5.71216,0.3609 6.37376,0.7944 1.86953,1.22497 0.72101,4.50743 -3.20054,9.14715 -2.55722,3.02553 -4.95062,6.17841 -7.75419,10.21476 -3.19728,4.60319 -5.21691,7.07325 -8.33379,10.19244 -2.57719,2.57911 -5.14325,4.55444 -6.2596,4.81858 -0.43761,0.10355 -0.8458,-0.0781 -1.86226,-0.82852 z M 21.701564,103.3396 c -1.244971,-0.46189 -1.860968,-0.93557 -2.521941,-1.93927 -0.574435,-0.8723 -0.600014,-1.02549 -0.556987,-3.335807 0.04947,-2.656325 0.822031,-18.977368 1.162063,-24.549645 0.286189,-4.689927 0.286146,-23.81795 -6.3e-5,-28.481741 -0.125713,-2.048494 -0.376551,-6.238555 -0.557417,-9.311246 -0.376298,-6.392799 -0.663277,-9.838088 -0.976349,-11.721424 -0.311372,-1.873107 -0.272389,-3.537486 0.09971,-4.257044 0.877629,-1.697146 2.878634,-2.386391 4.562131,-1.571424 0.936339,0.453273 1.021381,0.456394 4.116354,0.151059 8.641701,-0.852549 11.259167,-0.974597 23.864299,-1.112755 12.191628,-0.133625 14.564506,-0.210113 28.262654,-0.911016 13.632101,-0.697525 18.107661,-0.56601 19.716187,0.579361 1.019013,0.725601 1.605205,2.047781 1.481005,3.340428 -0.0579,0.60233 -0.30315,1.341719 -0.560567,1.689902 -0.43859,0.593226 -0.449203,0.750171 -0.25459,3.765252 0.111695,1.730423 0.20519,5.276218 0.207768,7.879545 0.0029,2.94838 0.17559,6.666246 0.457879,9.859064 0.57391,6.490974 0.79895,14.023816 0.67348,22.543423 -0.22701,15.415124 0.0944,25.830351 0.88873,28.800311 0.54128,2.023792 -0.55673,5.199317 -2.196198,6.351587 -1.130653,0.79465 -2.645273,0.9424 -6.122703,0.59725 -2.949488,-0.29275 -5.720256,0.0422 -7.499191,0.90647 l -1.204996,0.58545 -7.062316,0.002 c -5.232863,0.002 -8.325963,-0.10933 -11.940424,-0.4282 -4.73689,-0.41789 -19.526393,-0.7766 -31.716674,-0.76928 -4.771654,0.003 -7.397193,0.30667 -8.771713,1.01498 -1.076687,0.55483 -2.560752,0.6897 -3.550129,0.32263 z m 55.482639,-9.030754 c 0,-0.159537 -2.20939,-3.000601 -4.304485,-5.535154 -0.861223,-1.041869 -2.833036,-3.021335 -4.381807,-4.398812 -3.956833,-3.519209 -7.195521,-6.839903 -8.72001,-8.940809 -0.716739,-0.98774 -1.348933,-1.750124 -1.404873,-1.694181 -0.05594,0.05594 -0.08433,0.56116 -0.06309,1.122713 0.03895,1.029854 -0.38017,1.829084 -0.959193,1.829084 -0.152585,0 -0.888724,1.896457 -1.722126,4.436579 -1.41085,4.300114 -3.122984,9.02036 -4.059495,11.19177 -0.251167,0.582362 -0.456669,1.081476 -0.456669,1.109139 0,0.02766 2.390823,0.0714 5.31294,0.09721 3.263831,0.02882 6.83393,0.203526 9.256567,0.452978 3.735458,0.38463 11.502243,0.607112 11.502243,0.329485 z m 10.516336,-0.660675 c 0.662748,-0.190548 1.895132,-0.411207 2.738629,-0.490353 l 1.533633,-0.143903 0.144054,-3.3959 c 0.151411,-3.569329 0.400241,-5.136585 1.084766,-6.832414 0.33178,-0.821948 0.414097,-1.586039 0.413045,-3.834081 -6.57e-4,-1.544157 -0.06289,-3.598356 -0.13815,-4.564886 -0.128284,-1.647483 -0.179557,-1.788213 -0.820276,-2.251425 -0.375891,-0.271753 -1.327609,-0.959815 -2.11493,-1.529027 -1.284463,-0.928634 -4.215977,-3.230837 -8.342418,-6.551541 -0.796661,-0.641104 -1.503052,-1.165644 -1.569754,-1.165644 -0.119582,0 -2.124473,3.13878 -3.778478,5.915439 -0.466566,0.783248 -1.740826,2.640733 -2.83169,4.127745 -1.090864,1.487012 -2.103831,2.869603 -2.251035,3.072426 -0.233323,0.321477 0.07214,0.64907 2.381911,2.554509 3.0399,2.507754 4.644349,4.175347 7.336154,7.624871 1.050703,1.346466 2.43866,3.011379 3.084347,3.699805 1.263694,1.347333 1.81565,2.396655 1.81565,3.451721 0,0.365371 0.02465,0.663139 0.05477,0.661708 0.03012,-0.0015 0.597021,-0.158503 1.259769,-0.34905 z M 44.210752,92.069068 c 0.193271,-0.685329 0.748803,-2.379848 1.234515,-3.765594 2.877199,-8.208686 5.448095,-16.31894 5.448095,-17.186785 0,-0.473104 -0.732872,-1.894299 -1.813752,-3.51725 -2.399412,-3.602736 -3.055688,-5.907126 -2.090249,-7.339525 0.698046,-1.035673 1.799279,-1.582106 2.952856,-1.465206 1.262394,0.127925 2.072627,0.77935 2.899936,2.331541 l 0.707011,1.326487 0.698686,-0.522819 c 1.193771,-0.893293 2.061101,-1.231823 3.155988,-1.231823 2.056336,0 2.737091,0.700412 5.962361,6.134529 1.450422,2.443753 3.437789,5.110054 3.724817,4.997314 0.265421,-0.104254 4.168281,-5.943602 5.550338,-8.304259 1.806535,-3.0857 4.223231,-6.671942 5.237843,-7.772664 1.001554,-1.086559 1.851072,-1.405487 3.748622,-1.407316 1.630922,-0.0015 2.336047,0.317411 4.210452,1.904727 0.843498,0.714305 2.420949,1.972865 3.505446,2.796795 1.084497,0.823933 2.290756,1.796828 2.680574,2.16199 0.389819,0.365162 0.751745,0.620946 0.804283,0.56841 0.103534,-0.103535 -0.226487,-7.568317 -0.431901,-9.769239 l -0.126017,-1.350186 -1.025288,0.460009 c -0.715702,0.321108 -1.488375,0.462749 -2.558922,0.469086 -2.567496,0.0152 -4.549525,-1.183307 -5.766449,-3.486888 -0.486026,-0.920026 -0.578699,-1.376133 -0.578699,-2.848175 0,-1.472041 0.09267,-1.928148 0.578699,-2.848174 1.714487,-3.245443 5.204585,-4.37063 8.814712,-2.841809 0.405139,0.171567 0.414297,0.07537 0.273422,-2.872145 -0.08017,-1.677311 -0.391538,-5.070766 -0.69194,-7.541009 -0.300399,-2.470244 -0.546678,-4.61861 -0.547285,-4.774149 -8.76e-4,-0.221343 -0.53671,-0.256632 -2.465868,-0.162388 -8.840241,0.431862 -11.990311,0.597657 -12.762013,0.671683 -0.481998,0.04624 -2.798879,0.144591 -5.148623,0.21856 -2.349743,0.07397 -4.396542,0.173934 -4.548442,0.222138 -0.151898,0.04821 -2.493426,0.09683 -5.203396,0.10804 -2.709967,0.01122 -4.927214,0.05335 -4.927214,0.09362 0,0.04028 0.333663,0.406892 0.741474,0.814703 0.932146,0.932146 1.341615,2.600875 1.2904,5.258853 -0.04922,2.554645 -0.508554,4.62745 -1.665884,7.517545 -1.821278,4.548107 -2.536577,5.813745 -4.428773,7.836185 -0.717711,0.767112 -1.82148,2.011596 -2.452817,2.765516 -1.622132,1.937091 -3.253836,3.052005 -6.75638,4.616518 -5.256348,2.347896 -5.817841,2.493651 -9.677527,2.512113 l -3.340922,0.01597 -0.0025,7.22998 c -0.0022,6.173996 -0.51234,19.874263 -1.007701,27.057654 l -0.143531,2.081358 7.795064,0.04106 7.795063,0.04106 0.351401,-1.246058 z M 33.127653,76.996957 c -0.160676,-0.193602 -0.394577,-0.521952 -0.519781,-0.729665 -0.125203,-0.207716 -0.444646,-0.708302 -0.70987,-1.112412 -0.644209,-0.981553 -0.769281,-2.228738 -0.684565,-6.82635 0.06909,-3.749667 0.08811,-3.889633 0.602796,-4.436912 1.119631,-1.190519 3.102011,-1.110755 4.048516,0.162896 0.419036,0.563873 0.4651,0.961325 0.527795,4.553911 0.07788,4.462595 -0.140446,6.012832 -0.954498,6.777596 -0.296052,0.278126 -0.538278,0.670401 -0.538278,0.87172 0,0.44538 -0.675094,1.091217 -1.14065,1.091217 -0.18663,0 -0.47079,-0.1584 -0.631465,-0.352001 z m 7.224305,-0.853202 c -0.336028,-0.18262 -0.821869,-0.835562 -1.175374,-1.579632 -0.547395,-1.152176 -0.613129,-1.561566 -0.717746,-4.470113 -0.110258,-3.065371 -0.09321,-3.240845 0.400214,-4.118768 0.99609,-1.772305 2.853604,-2.283758 4.422459,-1.217693 1.414574,0.961228 1.588953,1.5318 1.571592,5.142338 -0.01415,2.945271 -0.05691,3.266552 -0.586498,4.408091 -0.314171,0.677206 -0.838196,1.441283 -1.164496,1.69795 -0.689199,0.542126 -1.895039,0.602557 -2.750151,0.137827 z M 62.185725,57.514997 C 60.41938,56.57582 58.133847,54.554958 57.55512,53.420624 c -0.561483,-1.100537 -0.678302,-2.328117 -0.290503,-3.052725 0.130199,-0.243278 0.582815,-0.58693 1.005813,-0.76367 0.648014,-0.270759 0.963758,-0.277781 2.005693,-0.0446 2.296735,0.513986 5.954766,4.041226 5.952744,5.739908 -0.0011,0.964098 -0.747721,2.08116 -1.640119,2.454028 -1.012334,0.422978 -1.192463,0.405096 -2.403023,-0.238563 z M 67.653773,48.995 c -0.602498,-0.152367 -1.407841,-0.439009 -1.78965,-0.636986 -0.381809,-0.197974 -1.226306,-0.559041 -1.876656,-0.802367 -1.743319,-0.652261 -2.419476,-1.458614 -2.52839,-3.01524 -0.07346,-1.049961 -0.0023,-1.387814 0.427077,-2.026808 0.283378,-0.421749 0.89838,-0.954509 1.366673,-1.18391 0.779089,-0.381653 0.974319,-0.392697 2.297556,-0.129982 2.653642,0.526856 6.527054,2.751917 7.408566,4.255814 0.374892,0.63958 0.344084,1.910488 -0.06031,2.487839 -0.188065,0.268497 -0.607076,0.623995 -0.931134,0.789993 C 71.09262,49.181505 68.91383,49.31366 67.653769,48.995 Z M 64.559738,37.816594 c -2.244476,-1.373333 -2.234577,-3.519769 0.02233,-4.842402 0.894469,-0.524196 1.03896,-0.538748 5.349161,-0.538748 2.647078,0 4.843634,0.103049 5.458009,0.25606 2.656845,0.661681 4.062075,2.696011 2.890827,4.185013 -0.871105,1.107431 -2.031526,1.320897 -7.668569,1.410676 l -5.148623,0.082 z M 33.366135,48.976861 c 0.854085,-0.175057 2.788729,-0.95049 4.833492,-1.937332 l 3.409408,-1.645445 2.067851,-2.345559 c 2.829374,-3.209351 2.757984,-3.103147 3.861281,-5.744296 1.252675,-2.998746 1.993194,-5.386528 2.371955,-7.648309 0.32292,-1.928304 0.671105,-2.785523 1.398991,-3.444251 0.253336,-0.229265 0.460611,-0.479492 0.460611,-0.556058 0,-0.07656 -1.15844,-0.120151 -2.574312,-0.09686 -1.415871,0.0233 -7.097655,0.05193 -12.626187,0.06362 l -10.051876,0.02126 0.123134,0.931134 c 0.06772,0.512123 0.326225,2.360698 0.574443,4.107943 0.810034,5.701926 1.982295,16.602252 1.987393,18.479871 0.0011,0.36651 0.130992,0.39075 1.370414,0.255538 0.753124,-0.08216 2.010154,-0.280731 2.793402,-0.44127 z" id="path4128" />
</svg>
