<?xml version="1.0" encoding="UTF-8" standalone="no"?>
<!-- Created with Inkscape (http://www.inkscape.org/) -->

<svg version="1.1" id="svg1678" width="128" height="128" viewBox="0 0 128 128" sodipodi:docname="eyecon_button.svg" xml:space="preserve" inkscape:version="1.2.2 (732a01da63, 2022-12-09)"
    xmlns:inkscape="http://www.inkscape.org/namespaces/inkscape"
    xmlns:sodipodi="http://sodipodi.sourceforge.net/DTD/sodipodi-0.dtd"
    xmlns="http://www.w3.org/2000/svg"
    xmlns:svg="http://www.w3.org/2000/svg">
    <sodipodi:namedview id="namedview7" pagecolor="#ffffff" bordercolor="#666666" borderopacity="1.0" inkscape:showpageshadow="2" inkscape:pageopacity="0.0" inkscape:pagecheckerboard="0" inkscape:deskcolor="#d1d1d1" showgrid="false" inkscape:zoom="3.2382813" inkscape:cx="90.634499" inkscape:cy="60.834741" inkscape:window-width="1920" inkscape:window-height="1009" inkscape:window-x="-8" inkscape:window-y="-8" inkscape:window-maximized="1" inkscape:current-layer="svg1678" />
    <defs id="defs1682" />
    <rect style="fill:#ffffff;stroke-width:1.88976;stroke-dasharray:1.88976, 11.3386" id="rect356" width="102.52352" height="108.69964" x="13.278649" y="11.425815" />
    <path style="fill:#000000;stroke-width:1.08262" d="M 9.3303736,124.91644 C 7.9602884,124.52489 7.7602673,117.06677 7.7602673,66.372333 7.7602673,34.419865 8.0688853,7.9441648 8.4460866,7.5374451 9.0265622,6.9115388 25.862126,6.5521503 97.25633,5.6416134 c 4.8935,-0.062414 11.95898,0.3344151 15.70106,0.8818337 l 6.8038,0.9953075 0.78959,13.4368004 c 1.09937,18.708104 -0.034,99.899285 -1.43363,102.696795 -0.82806,1.65515 -1.67357,1.99759 -3.37085,1.36519 -2.08508,-0.77691 -99.714933,-0.77224 -103.275714,0.004 -0.863558,0.18848 -2.276654,0.14077 -3.1402124,-0.10604 z M 111.64759,113.57894 c 0.999,-2.77428 0.94954,-96.175724 -0.0515,-97.249636 -0.46087,-0.494417 -21.948482,-0.915472 -47.750253,-0.935677 l -46.912311,-0.03674 -0.701959,12.559637 c -0.386077,6.9078 -0.374087,29.182503 0.02664,49.499342 l 0.728603,36.939704 6.377471,0.37569 c 3.507609,0.20663 24.65032,0.46501 46.983802,0.57417 37.529527,0.18343 40.658847,0.0526 41.299497,-1.72649 z M 53.627391,93.800701 C 45.304305,90.971776 36.51911,84.764157 26.339859,74.51933 18.425211,66.553695 18.021379,64.058576 23.723015,58.350879 38.832749,43.225082 59.991168,37.946959 79.772296,44.368973 c 10.267094,3.33325 28.998144,18.382166 28.998144,23.297712 0,8.51019 -17.754543,22.70098 -33.977202,27.157177 -8.18233,2.247601 -12.100002,2.05822 -21.165847,-1.023161 z M 86.970155,80.979053 c 5.029546,-3.412078 10.314339,-9.880773 10.245352,-12.540523 -0.03895,-1.501662 -7.726889,-8.243938 -10.872679,-9.535275 -1.075525,-0.441499 -1.342519,0.0086 -0.95221,1.605222 0.78202,3.198996 -1.591584,14.684599 -3.930068,19.01715 -1.099317,2.036725 -1.998759,3.926275 -1.998759,4.199 0,1.343835 3.211368,0.169538 7.508364,-2.745574 z M 43.673669,73.303089 c -1.25396,-4.014095 -1.890767,-8.652598 -1.691184,-12.318593 0.176067,-3.23407 0.08461,-5.877356 -0.203246,-5.87397 -1.322092,0.01555 -11.919473,7.456314 -12.283534,8.62466 -0.599617,1.924299 10.444398,12.880542 16.068193,15.940491 0.06659,0.03623 -0.78401,-2.831431 -1.890229,-6.372588 z" id="path302" />
</svg>
