<?xml version="1.0" encoding="UTF-8" standalone="no"?>
<!-- Created with Inkscape (http://www.inkscape.org/) -->

<svg version="1.1" id="svg3928" width="170.66667" height="170.66667" viewBox="0 0 170.66667 170.66667"
    xmlns="http://www.w3.org/2000/svg"
    xmlns:svg="http://www.w3.org/2000/svg">
    <defs id="defs11015" />
    <g id="g3934">
        <rect style="fill:#ffffff;stroke-width:1.88976;stroke-dasharray:1.88976, 11.3386" id="rect6051" width="144.52112" height="140.60957" x="13.999196" y="15.440289" />
        <path style="fill:#000000;stroke-width:1.33333" d="m 94.000002,165.9926 c -9.164478,-1.847 -37.715324,-1.81473 -72.856299,0.0823 L 8.2874043,166.76896 5.3027372,160.60347 C 2.5500254,154.91712 2.3936262,153.33292 3.2902847,140.21899 4.6362476,120.53381 4.2460814,55.726616 2.6275078,30.130727 1.4419824,11.383003 1.5325327,8.6565292 3.4095818,6.5824133 5.3549653,4.4327888 10.400297,4.1793898 63.766209,3.5510365 95.794795,3.1739181 131,2.263236 142,1.5272987 c 15.05495,-1.00722686 20.59252,-0.94937381 22.39643,0.2339833 2.24725,1.4741895 2.44108,6.4291134 3.11377,79.595776 0.81215,88.336202 1.6809,81.197492 -10.1984,83.803332 -10.82526,2.37463 -52.9136,2.92787 -63.311798,0.83221 z m 48.802298,-14.84309 8.80228,-0.83153 0.94037,-35.6689 c 0.5172,-19.61789 0.51989,-49.089436 0.005,-65.49232 l -0.93374,-29.823426 -23.47494,0.383074 c -12.91121,0.210691 -42.157357,0.350611 -64.991433,0.310934 l -41.516501,-0.07213 -0.7809,3.111352 c -0.429495,1.711244 -0.916304,30.671325 -1.081799,64.355735 l -0.300899,61.244371 26.598301,0.1204 c 14.629064,0.0663 30.460022,0.60639 35.179905,1.20032 l 8.581604,1.07987 -5.3857,-6.53366 c -2.962136,-3.5935 -8.533599,-11.11145 -12.381031,-16.70656 -6.059235,-8.81162 -6.792864,-10.55124 -5.482326,-13 2.156115,-4.02874 8.183815,-3.69881 12.570695,0.68807 3.942675,3.94272 3.933596,3.96511 3.588406,-8.84844 -0.38056,-14.126435 0.620521,-13.333331 -16.829771,-13.333331 -8.383915,0 -15.243483,0.519085 -15.243483,1.153522 0,0.634437 1.275,2.774421 2.833333,4.755521 3.333079,4.237318 3.664252,9.498128 0.779515,12.382868 -2.993816,2.99381 -8.229931,1.17898 -11.41476,-3.95634 -1.478861,-2.38457 -4.828419,-6.40327 -7.443463,-8.93046 -6.943317,-6.710372 -6.443984,-10.11337 3.443086,-23.46271 8.687285,-11.729415 11.883379,-13.736483 16.772725,-10.53286 3.463654,2.269473 3.762018,5.144437 1.029894,9.923788 -1.048028,1.833333 -1.926767,3.783334 -1.952754,4.333334 -0.02599,0.55 5.652754,1 12.619421,1 h 12.666667 l -0.0116,-6.333334 c -0.0064,-3.483333 -0.381986,-9.416097 -0.834692,-13.183921 l -0.823103,-6.850589 -4.887295,0.655524 c -3.526609,0.47302 -5.39976,0.03803 -6.728004,-1.562406 C 63.807317,49.221361 66.304417,45.086038 77.165972,35.418446 88.737126,25.119258 92.443278,24.306035 97.955334,30.856741 102.31643,36.039606 108,47.072689 108,50.355676 c 0,6.720486 -7.6251,7.510193 -12.658421,1.310992 l -3.518364,-4.333334 0.882488,15.333334 c 0.502051,8.723189 1.558691,16.043942 2.451054,16.981708 1.134448,1.19217 4.622776,1.412851 12.604133,0.797372 9.41623,-0.726126 10.90306,-1.163657 10.13255,-2.981708 -2.39318,-5.646744 -2.1202,-7.920653 1.21305,-10.10468 4.6255,-3.030745 8.13918,-1.0251 17.50422,9.99159 9.65176,11.353997 9.76793,14.479052 0.88973,23.93552 -5.2789,5.62273 -7.19433,6.84064 -10.19885,6.48489 -5.21189,-0.61713 -6.97334,-3.93222 -4.60557,-8.667813 1.0368,-2.073616 2.10434,-4.220212 2.37231,-4.770212 0.67299,-1.38126 -28.744971,-1.26856 -29.599065,0.1134 -0.378463,0.612367 -0.02509,6.950165 0.785257,14.083995 l 1.473372,12.9706 5.519856,-5.41733 c 5.59958,-5.49557 9.58795,-6.71497 12.48559,-3.81733 3.0234,3.02341 1.58833,7.51414 -4.88401,15.2834 -3.56621,4.2808 -7.75763,10.29256 -9.31428,13.35947 -1.556652,3.0669 -3.438849,5.95232 -4.182661,6.41202 -3.271782,2.02207 -0.71344,3.25639 7.647611,3.68971 17.66718,0.91563 29.12944,0.95755 37.8023,0.13824 z" id="path5997" />
    </g>
</svg>
