<?xml version="1.0" encoding="UTF-8" standalone="no"?>
<!-- Created with Inkscape (http://www.inkscape.org/) -->

<svg version="1.1" id="svg627" width="170.66667" height="170.66667" viewBox="0 0 170.66667 170.66667"
    xmlns="http://www.w3.org/2000/svg"
    xmlns:svg="http://www.w3.org/2000/svg">
    <defs id="defs631" />
    <circle style="fill:#ffffff;fill-opacity:1;stroke:none;stroke-width:75.5906;stroke-linejoin:bevel;stroke-opacity:0" id="path1196" cx="83.995186" cy="27.586651" r="19.763571" />
    <path style="fill:#b0b0b0;fill-opacity:1;stroke:none;stroke-width:1.09211px;stroke-linecap:butt;stroke-linejoin:miter;stroke-opacity:1" d="m 79.532027,45.085647 c 0,0 -5.932558,9.352906 -19.705683,12.090233 C 47.375316,59.650447 27.164956,62.057115 19.627783,68.166709 7.9333728,77.646139 0.88330711,95.936052 1.8615057,111.4437 c 0.9464004,15.00356 10.5540063,29.78367 22.3217333,39.50413 14.982959,12.37632 36.006887,20.73319 55.57656,19.08626 30.615461,-2.57649 67.114111,-16.94603 80.403801,-43.9428 8.58833,-17.44643 3.8843,-43.23122 -9.79424,-57.258781 C 138.42908,56.587568 122.01017,57.673487 99.57603,57.957777 92.037578,58.053306 79.532027,45.085647 79.532027,45.085647 Z" id="path492" />
    <circle style="fill:#ffffff;fill-opacity:1;stroke:none;stroke-width:66.5977;stroke-linejoin:bevel;stroke-opacity:0" id="path1196-1" cx="49.123383" cy="94.865936" r="17.412333" />
    <circle style="fill:#ffffff;fill-opacity:1;stroke:none;stroke-width:75.2693;stroke-linejoin:bevel;stroke-opacity:0" id="path1196-4-8" cx="81.045998" cy="134.0437" r="19.679564" />
    <path style="fill:#000000;stroke-width:1.25684" d="m 98.076522,147.23131 c -9.141206,11.18345 -17.894185,14.01664 -27.612356,8.93765 -6.861006,-3.58576 -12.876249,-14.02489 -12.535992,-21.75554 0.506058,-11.49763 9.206001,-21.91931 20.494456,-24.55035 9.383536,-2.18707 21.59334,4.51987 25.1976,13.84124 2.46319,6.37029 0.0262,16.71278 -5.543708,23.527 z M 96.586583,125.4757 c -6.458159,-12.41702 -25.61082,-10.21355 -30.637191,3.52475 -5.143912,14.05956 8.644125,26.65931 20.787942,18.99638 5.579361,-3.52064 10.649631,-9.96686 11.60252,-14.75112 0.348456,-1.74951 -0.440516,-5.24601 -1.753271,-7.77001 z" id="path393" />
    <circle style="fill:#ffffff;fill-opacity:1;stroke:none;stroke-width:75.2693;stroke-linejoin:bevel;stroke-opacity:0" id="path1196-4" cx="117.77515" cy="96.226273" r="19.679564" />
    <path style="fill:#000000;stroke-width:1.25684" d="M 98.494633,107.4676 C 91.046011,95.092237 94.23042,82.99443 102.28737,75.556385 c 5.68819,-5.251243 14.64177,-4.494521 21.80553,-1.568903 10.65451,4.351206 17.53463,16.05439 16.20751,27.569178 -1.10317,9.57168 -11.53253,18.80697 -21.52328,19.05905 -6.82775,0.17228 -15.74396,-5.60762 -20.282497,-13.14811 z m 20.985097,5.92896 c 13.8671,-1.8958 18.24705,-20.670669 7.00631,-30.032881 -11.50359,-9.581144 -28.01293,-0.845844 -24.89078,13.170048 1.43443,6.439453 5.79485,13.385543 9.97812,15.895013 1.52974,0.91765 5.0876,1.35317 7.90635,0.96782 z" id="path393-9" />
    <path style="fill:#000000;stroke-width:1.42963" d="m 40.670016,114.16129 c -10.74675,-4.855 -15.414905,-21.085641 -9.111505,-31.679633 3.744859,-6.293914 8.201122,-8.442468 17.504301,-8.439578 9.230948,0.0035 16.124862,3.608459 19.453454,10.174382 4.745157,9.360213 2.284392,19.459729 -6.74866,27.697919 -5.443815,4.96479 -13.242884,5.7954 -21.09759,2.24691 z m 17.687689,-8.92432 c 3.618203,-3.16238 4.315857,-4.81112 4.315857,-10.199383 0,-7.748246 -2.986962,-11.409188 -11.177984,-13.700197 -7.870599,-2.201389 -12.782391,0.349391 -15.154492,7.870001 -1.566067,4.965129 -1.46474,6.300126 0.827921,10.908319 4.651584,9.34956 13.816533,11.56471 21.188698,5.12126 z" id="path391" />
    <path style="fill:#000000;stroke-width:1.94662" d="M 70.155282,40.789288 C 57.514982,33.028977 55.899966,18.882276 66.442517,8.2672723 72.046391,2.6248786 74.390833,1.6260456 82.030539,1.6260456 c 11.35727,0 17.931867,4.2876007 20.666451,13.4775514 2.72887,9.170733 -0.47102,22.257062 -6.478238,26.49361 -5.876252,4.144166 -18.641859,3.748452 -26.06347,-0.807919 z m 20.202465,-6.706034 c 7.124684,-5.45053 7.188299,-20.872425 0.215071,-23.892825 -12.581654,-5.9441154 -21.497402,3.625977 -23.650772,9.314389 -4.329893,11.437985 11.49211,23.715538 23.435701,14.578436 z" id="path8404" />
</svg>
