<?xml version="1.0" encoding="UTF-8" standalone="no"?>
<!-- Created with Inkscape (http://www.inkscape.org/) -->

<svg version="1.1" id="svg543" width="170.66667" height="170.66667" viewBox="0 0 170.66667 170.66667"
    xmlns="http://www.w3.org/2000/svg"
    xmlns:svg="http://www.w3.org/2000/svg">
    <defs id="defs547" />
    <g id="g549">
        <rect style="fill:#ffffff;stroke-width:1.88976;stroke-dasharray:1.88976, 11.3386" id="rect672" width="125.37515" height="131.3454" x="22.028147" y="19.557701" />
        <path style="fill:#000000;stroke-width:1.33333" d="m 33.694077,157.67886 c -17.022382,-0.3754 -19.111787,-0.6785 -20.326742,-2.94866 -0.890553,-1.66401 -1.127452,-25.25828 -0.691973,-68.918042 0.567305,-56.876189 0.951173,-66.676787 2.679268,-68.404883 3.064518,-3.064517 135.02097,-5.4326 137.19319,-2.46206 2.087,2.854031 1.85297,139.187335 -0.24254,141.282845 -1.50885,1.50885 -75.139481,2.40946 -118.611203,1.4508 z M 142.02196,146.42332 c 0.50004,-0.5005 1.14278,-27.86286 1.42828,-60.805236 l 0.51911,-59.895233 -15.27351,-0.913136 c -8.40044,-0.502224 -35.038536,-0.496101 -59.195775,0.01361 l -43.922253,0.926741 -0.829577,16.12497 C 24.291967,50.743765 24.086959,77.800002 24.292662,102 l 0.374005,44 12,0.72727 c 17.108321,1.03687 104.266953,0.78541 105.355293,-0.30395 z M 43.165898,123.80777 C 42.524654,122.8135 41.81457,105.8 41.587931,86.000002 c -0.32211,-28.14081 -0.03103,-36.487426 1.333334,-38.232712 1.370164,-1.752708 4.525859,-2.326006 14.678551,-2.666666 7.621571,-0.255734 13.491889,0.124706 14.293627,0.926337 0.839765,0.839651 1.503256,15.327579 1.733518,37.852969 l 0.37304,36.49268 -4.82589,1.68362 c -7.952494,2.77441 -24.624406,3.89719 -26.008213,1.75154 z m 51.260827,-2.10063 c -1.435594,-1.72581 -3.606629,-36.012368 -3.702637,-58.47472 -0.05261,-12.30994 0.197676,-13.673899 2.990704,-16.297811 2.914422,-2.737957 3.601617,-2.802421 15.666668,-1.469644 6.9402,0.766655 13.02119,1.800671 13.51332,2.297811 1.42701,1.441546 2.45908,71.380454 1.08607,73.597674 -1.59412,2.57426 -27.448851,2.87756 -29.554125,0.34669 z" id="path670" />
    </g>
</svg>
