<?xml version="1.0" encoding="UTF-8" standalone="no"?>
<!-- Created with Inkscape (http://www.inkscape.org/) -->

<svg version="1.1" id="svg1678" width="128" height="128" viewBox="0 0 128 128" xml:space="preserve"
    xmlns="http://www.w3.org/2000/svg"
    xmlns:svg="http://www.w3.org/2000/svg">
    <defs id="defs1682" />
    <rect style="fill:#ffffff;stroke-width:1.88976;stroke-dasharray:1.88976, 11.3386" id="rect365" width="102.27295" height="102.27295" x="12.228288" y="9.8461533" />
    <path style="fill:#000000;stroke-width:2.08963" d="M 11.225562,116.7785 C 7.6999484,111.23128 7.2053484,105.6859 6.5565604,64.430282 6.1574484,39.051218 6.6538604,15.006553 7.6597024,10.997691 9.3097434,4.4213084 10.17246,3.7323744 16.485772,3.9495174 c 3.848499,0.132366 12.053722,0.412479 18.23383,0.622472 6.180108,0.209993 26.882453,-0.265322 46.005209,-1.056257 29.499349,-1.220119 35.152089,-0.954725 37.298699,1.751162 2.92478,3.686793 4.63493,99.9880156 1.91402,107.7813156 -0.88552,2.53632 -2.99627,5.16799 -4.69056,5.84815 -1.69429,0.68017 -24.904974,1.87791 -51.579297,2.66165 l -48.498769,1.42497 z m 92.981688,-10.72085 c 2.32678,-2.4362 3.59421,-85.35315 1.34104,-87.732035 -2.38948,-2.522792 -39.317745,-3.577522 -63.907147,-1.825288 l -20.659103,1.47216 -1.0255,40.917485 c -0.683752,27.281751 -0.293713,42.143338 1.170411,44.595978 1.20775,2.02317 4.990015,4.05308 8.405032,4.51091 11.607227,1.5561 72.856057,-0.0344 74.675267,-1.93921 z M 56.597896,95.346843 c -0.796503,-0.83326 -1.462265,-6.40411 -1.479471,-12.37965 -0.03837,-13.325174 -2.040735,-17.164664 -7.931605,-15.208681 -5.877673,1.9516 -15.94509,-0.533048 -17.317264,-4.273915 -1.896787,-5.171082 4.565963,-9.549113 14.096179,-9.549113 h 8.954274 l 0.604097,-14.426799 c 0.548761,-13.105288 1.024867,-14.48932 5.197579,-15.109326 5.497097,-0.81679 8.686089,6.154699 8.686089,18.988746 v 8.410075 h 12.090973 c 15.193857,0 18.554187,1.354801 18.554187,7.480563 0,6.118091 -3.36236,7.480563 -18.460843,7.480563 H 67.594465 l -0.604098,14.426797 c -0.529579,12.64719 -1.118497,14.50383 -4.774191,15.05128 -2.293552,0.34347 -4.821778,-0.0573 -5.61828,-0.89054 z" id="path309" />
</svg>
