<?xml version="1.0" encoding="UTF-8" standalone="no"?>
<!-- Created with Inkscape (http://www.inkscape.org/) -->

<svg version="1.1" id="svg500" width="170.66667" height="170.66667" viewBox="0 0 170.66667 170.66667"
    xmlns="http://www.w3.org/2000/svg"
    xmlns:svg="http://www.w3.org/2000/svg">
    <defs id="defs504" />
    <g id="g506">
        <circle style="fill:#ffffff;stroke-width:1.88976;stroke-dasharray:1.88976, 11.3386" id="path1013" cx="102.72939" cy="34.380379" r="10.911139" />
        <circle style="fill:#ffffff;stroke-width:1.88976;stroke-dasharray:1.88976, 11.3386" id="path1015" cx="103.55287" cy="84.20105" r="7.6172099" />
        <circle style="fill:#ffffff;stroke-width:1.88976;stroke-dasharray:1.88976, 11.3386" id="path1017" cx="103.55288" cy="145.9622" r="8.0289507" />
        <path style="fill:#000000;stroke-width:1.71625" d="m 52.782675,156.25126 c -2.014251,-2.42701 -1.809096,-3.15688 1.506106,-5.35808 3.303479,-2.19342 3.837993,-4.06793 3.837993,-13.4596 0,-6.00118 0.754789,-22.31863 1.677307,-36.26099 0.922521,-13.942357 -0.208509,-5.495099 0.07766,-33.049379 0.495467,-47.707532 0.367329,-50.138693 -2.684702,-50.936817 -1.984498,-0.518958 -2.975815,-2.028196 -2.603166,-3.963205 0.508174,-2.63874 2.33061,-3.125078 11.710456,-3.125078 9.208073,0 11.207411,0.512995 11.686065,2.998437 0.376695,1.955997 -0.995486,3.596466 -3.946879,4.718585 -3.799766,1.444666 -4.438186,2.613604 -3.986447,7.299065 0.430242,4.462423 1.39656,5.699415 4.828512,6.181006 8.224887,1.154165 8.239265,8.837292 0.0166,8.837292 -3.490648,0 -5.041722,1.032714 -5.799825,3.861564 -2.105432,7.856405 -1.195952,11.626223 3.208896,13.300943 5.473059,2.080849 5.473059,4.784154 0,6.865003 -3.566476,1.355972 -4.290623,2.763318 -4.290623,8.338607 15.856835,12.2885 -8.060301,0.121536 4.694329,15.575488 3.736204,1.433709 3.156584,7.069545 -0.85813,8.343771 -5.438816,1.72621 -4.746539,11.722188 0.992937,14.337268 5.042971,2.29774 4.757164,6.00206 -0.523345,6.78324 -5.110278,0.756 -8.189441,14.06263 -3.25411,14.06263 1.300326,0 3.282789,1.10679 4.405487,2.45956 1.646262,1.98362 1.172113,3.02902 -2.450343,5.40255 -5.280968,3.46021 -5.29793,9.79534 -0.0287,10.73664 5.228609,0.93403 6.832265,3.2244 4.350991,6.21415 -3.108391,3.74539 -19.421165,3.62781 -22.56697,-0.1627 z m 41.690158,-1.94866 c -5.09061,-7.76926 0.760033,-19.74939 9.644857,-19.74939 6.08015,0 9.23842,3.99393 9.02802,11.41674 -0.33404,11.78427 -12.77398,17.3355 -18.672877,8.33265 z m 12.706447,-8.17937 c 0.43182,-3.7412 -0.15975,-4.70502 -2.88779,-4.70502 -3.59205,0 -6.428268,5.49407 -4.471034,8.66092 2.093684,3.38766 6.803444,0.85583 7.358824,-3.9559 z M 95.480585,93.336267 c -6.984694,-6.984699 -2.46593,-20.595008 6.837765,-20.595008 5.45832,0 12.041,6.736965 12.041,12.323218 0,4.339634 -7.51029,11.704292 -11.93575,11.704292 -1.93078,0 -5.055135,-1.544626 -6.943015,-3.432502 z m 11.691825,-7.318964 c 0.68305,-3.546769 -4.27143,-5.936684 -6.88631,-3.321789 -2.614901,2.614894 -0.22499,7.569368 3.32178,6.886323 1.6439,-0.316586 3.24795,-1.920627 3.56453,-3.564534 z M 92.429963,47.758306 c -5.689526,-3.985097 -5.454472,-18.155494 0.398243,-24.008203 8.452954,-8.452957 23.247384,-2.483825 23.247384,9.37966 0,7.04355 -9.03653,17.300238 -15.24217,17.300238 -2.523994,0 -6.305547,-1.202263 -8.403457,-2.671695 z m 14.083667,-8.606525 c 4.64917,-4.649162 2.60646,-11.033039 -3.53033,-11.033039 -5.355556,0 -9.109357,7.151781 -5.828636,11.104804 2.787186,3.358366 5.953116,3.334089 9.358966,-0.07176 z" id="path8423" />
    </g>
</svg>
