<?xml version="1.0" encoding="UTF-8" standalone="no"?>
<!-- Created with Inkscape (http://www.inkscape.org/) -->

<svg version="1.1" id="svg627" width="170.66667" height="170.66667" viewBox="0 0 170.66667 170.66667"
    xmlns="http://www.w3.org/2000/svg"
    xmlns:svg="http://www.w3.org/2000/svg">
    <defs id="defs631" />
    <g id="g633">
        <circle style="fill:#ffffff;stroke-width:1.88976;stroke-dasharray:1.88976, 11.3386" id="path968" cx="124.02773" cy="56.482109" r="35.519676" />
        <circle style="fill:#ffffff;stroke-width:1.54898;stroke-dasharray:1.54898, 9.29393" id="path968-9" cx="40.177998" cy="89.09034" r="29.114489" />
        <circle style="fill:#ffffff;stroke-width:1.16174;stroke-dasharray:1.16174, 6.97045" id="path968-2" cx="106.26789" cy="138.29382" r="21.835865" />
    </g>
    <path style="fill:#000000;stroke-width:2.51809" d="M 96.923114,80.74759 C 77.836614,102.24721 59.560734,107.69386 39.26957,97.929757 24.944056,91.036324 12.384462,70.967617 13.094906,56.105826 14.151535,34.002217 32.31668,13.967047 55.886535,8.9089996 75.478994,4.7044744 100.9726,17.598243 108.49815,35.518112 c 5.14304,12.246544 0.0547,32.129468 -11.575036,45.229478 z m -3.11093,-41.824085 c -13.4844,-23.871102 -53.474417,-19.635027 -63.969285,6.776156 -10.740289,27.028795 18.048598,51.2512 43.404415,36.519604 11.64948,-6.768267 22.23603,-19.160798 24.22563,-28.358298 0.72755,-3.363339 -0.91979,-10.085196 -3.66076,-14.937462 z" id="path393" />
    <path style="fill:#000000;stroke-width:2.24958" d="m 120.07806,128.88843 c -17.23461,-7.49577 -24.720952,-32.5547 -14.61216,-48.91107 6.00565,-9.71734 13.15218,-13.034549 28.07173,-13.030089 14.80372,0.005 25.85952,5.571199 31.1976,15.708509 7.60983,14.45149 3.66348,30.04441 -10.82286,42.76358 -8.73027,7.66528 -21.23768,8.94768 -33.83431,3.46907 z m 28.36584,-13.7785 c 5.80252,-4.88249 6.92136,-7.42803 6.92136,-15.74711 0,-11.96274 -4.79021,-17.61497 -17.92619,-21.15212 -12.62212,-3.39879 -20.49918,0.53944 -24.30333,12.15072 -2.51151,7.6658 -2.34901,9.72694 1.32774,16.84165 7.45977,14.43504 22.15764,17.85508 33.98042,7.90686 z" id="path391" />
    <path style="fill:#000000;stroke-width:1.67686" d="m 89.689387,165.37155 c -10.660245,-6.82811 -12.022273,-19.27546 -3.13117,-28.61535 4.72605,-4.96461 6.70324,-5.84346 13.146215,-5.84346 9.578188,0 15.122898,3.77256 17.429118,11.85858 2.3014,8.06911 -0.39723,19.58346 -5.46344,23.3111 -4.95576,3.64635 -15.721678,3.29817 -21.980723,-0.71087 z m 16.548553,-7.9423 c 3.82833,-4.02155 3.34246,-13.93121 -0.79715,-16.25848 -5.06576,-2.84796 -12.915043,-0.38435 -14.727113,4.62232 -3.48811,9.63751 8.717665,18.78631 15.524263,11.63616 z" id="path8404" />
</svg>
