<?xml version="1.0" encoding="UTF-8" standalone="no"?>
<!-- Created with Inkscape (http://www.inkscape.org/) -->

<svg version="1.1" id="svg1678" width="128" height="128" viewBox="0 0 128 128" xml:space="preserve"
    xmlns="http://www.w3.org/2000/svg"
    xmlns:svg="http://www.w3.org/2000/svg">
    <defs id="defs1682" />
    <g id="g1684">
        <rect style="fill:#f9f9f9;stroke:none;stroke-width:1.88976;stroke-dasharray:1.88976, 11.3386" id="rect2227" width="108.54523" height="109.62605" x="10.190591" y="8.0289507" />
        <path style="fill:#000000;stroke-width:1.33333" d="M 31.214819,123.12899 C 12.035335,122.79522 8.0617851,122.38104 6.548151,120.55783 4.0950464,117.60302 3.4571474,15.154123 5.8495489,8.3597926 L 7.4105316,3.9266599 63.798678,3.9086899 c 40.667072,-0.01296 56.904952,0.4109414 58.241822,1.5204439 1.44039,1.195418 1.93347,7.2414392 2.21158,27.1177682 0.45239,32.331963 0.46961,37.694584 0.18917,58.912688 -0.126,9.53333 -0.25424,19.69812 -0.28498,22.58841 -0.0308,2.8903 -0.64685,5.84604 -1.36912,6.56831 -3.20705,3.20705 -22.01511,3.72313 -91.572331,2.51268 z m 82.655641,-10.99672 c 0.61962,-0.58255 0.68423,-23.078615 0.14357,-49.991245 l -0.98302,-48.932054 -47.699978,0.458644 c -26.234988,0.252254 -48.199595,0.958531 -48.810239,1.569506 -1.165554,1.166184 -1.598538,94.849109 -0.443595,95.978859 2.496027,2.44159 95.246562,3.31063 97.793262,0.91629 z m -75.736321,-6.58055 c -1.001143,-1.61988 0.255455,-2.32137 6.133854,-3.42416 5.491142,-1.03014 8.027208,1.07462 3.934206,3.26513 -3.240008,1.734 -9.038073,1.82558 -10.06806,0.15903 z m -12.402878,-4.07404 c -2.063606,-3.304358 -2.115013,-5.351424 -0.134386,-5.351424 1.82252,0 5.045179,3.998404 5.104587,6.333334 0.06597,2.59299 -3.132227,1.96116 -4.970201,-0.98191 z M 56.0772,98.923936 c 0,-3.084254 6.607968,-8.723045 8.272136,-7.058877 1.844625,1.844625 -0.285079,5.532743 -4.433711,7.678084 C 56.319282,101.40288 56.0772,101.36383 56.0772,98.923936 Z M 23.410532,90.126775 c -8.40193,-4.520953 -9.414171,-8.768456 -2.698167,-11.321875 2.277036,-0.865727 4.425818,-3.668348 6.624779,-8.640587 3.238508,-7.322844 5.254056,-8.96739 13.021828,-10.624908 3.834207,-0.818157 6.338382,-3.843506 21.051561,-25.432846 7.99083,-11.725321 8.978592,-12.688283 12.666667,-12.348654 7.060866,0.650224 5.965299,5.112936 -5.974257,24.335727 -5.910149,9.515389 -11.697762,20.615389 -12.861366,24.666666 -3.471892,12.087959 -5.509016,15.797617 -9.930764,18.084192 -6.282047,3.248573 -17.071957,3.880333 -21.900281,1.282285 z m 20.569894,-9.513664 c 1.519892,-1.932229 2.76344,-4.360878 2.76344,-5.396998 0,-2.398832 -6.662756,-8.642434 -8.564704,-8.025899 -1.592636,0.51627 -6.64409,9.264232 -8.047275,13.936043 -0.840924,2.799797 -0.501111,3 5.092021,3 4.886324,0 6.503407,-0.648779 8.756518,-3.513146 z m 28.833162,8.959291 c -1.181961,-1.912453 5.488596,-5.900939 8.156707,-4.877088 1.940621,0.744685 1.987477,1.108781 0.343627,2.670171 -2.667054,2.533268 -7.51995,3.793212 -8.500334,2.206917 z M 87.479684,77.571478 c -0.912976,-1.477226 1.243891,-7.529945 3.089809,-8.670785 2.323672,-1.436108 3.152478,1.921401 1.474373,5.972707 -1.650176,3.983877 -3.202412,4.901467 -4.564182,2.698078 z m 6.682151,-18.641613 c -0.406676,-0.658016 -0.367086,-3.058016 0.08797,-5.333333 0.97967,-4.898336 4.494058,-5.612042 4.494058,-0.912657 0,5.952448 -2.585358,9.476676 -4.582032,6.24599 z M 92.886519,38.017209 c -1.441997,-3.757784 -0.918574,-10.149592 0.784655,-9.581848 1.853883,0.61796 4.013685,7.583681 3.108129,10.02423 -0.859778,2.317175 -2.923853,2.08261 -3.892784,-0.442382 z m 4.067375,-14.792035 c -0.976329,-0.97633 4.217786,-7.098915 6.022396,-7.098915 2.2076,0 1.02911,5.277934 -1.4781,6.619754 -3.042453,1.628272 -3.36154,1.661917 -4.544296,0.479161 z" id="path4828" />
    </g>
</svg>
