<?xml version="1.0" encoding="UTF-8" standalone="no"?>
<!-- Created with Inkscape (http://www.inkscape.org/) -->

<svg version="1.1" id="svg1678" width="128" height="128" viewBox="0 0 128 128" xml:space="preserve" sodipodi:docname="angle_0_rel.svg" inkscape:version="1.2.2 (732a01da63, 2022-12-09)"
    xmlns:inkscape="http://www.inkscape.org/namespaces/inkscape"
    xmlns:sodipodi="http://sodipodi.sourceforge.net/DTD/sodipodi-0.dtd"
    xmlns="http://www.w3.org/2000/svg"
    xmlns:svg="http://www.w3.org/2000/svg">
    <sodipodi:namedview id="namedview1420" pagecolor="#ffffff" bordercolor="#666666" borderopacity="1.0" inkscape:showpageshadow="2" inkscape:pageopacity="0.0" inkscape:pagecheckerboard="0" inkscape:deskcolor="#d1d1d1" showgrid="false" inkscape:zoom="2.2262815" inkscape:cx="71.19495" inkscape:cy="99.493258" inkscape:window-width="958" inkscape:window-height="1000" inkscape:window-x="-7" inkscape:window-y="0" inkscape:window-maximized="0" inkscape:current-layer="svg1678" />
    <defs id="defs1682" />
    <rect style="fill:#ffffff;stroke-width:77.7235;stroke-linejoin:bevel;stroke-opacity:0" id="rect1519" width="127.68238" height="127.68237" x="-9.0124708e-09" y="-9.0124672e-09" />

    <g transform="matrix(0.18579707,0,0,0.18579707,-824.29363,-1917.3433)" id="g112" style="clip-rule:evenodd;fill-rule:evenodd;stroke-linecap:round;stroke-miterlimit:10">
        <g transform="translate(-1108.96,8592.47)" id="g110">
            <path d="m 6015.29,1956.02 123.56,6.88 -6.88,123.55" style="fill:none;stroke:#676767;stroke-width:58.33px" id="path106" />
            <path d="m 5624.17,2190.4 c 0,-193.65 311.92,-105.38 441.92,-148.71 38.15,-12.71 54.39,-49.89 72.76,-78.79" style="fill:none;stroke:#676767;stroke-width:58.33px;stroke-linejoin:round;stroke-miterlimit:1.5" id="path108" />
        </g>
    </g>
    <g transform="matrix(-0.13329323,-0.12943516,-0.12943516,0.13329323,2045.2789,-368.76838)" id="g126" style="clip-rule:evenodd;fill-rule:evenodd;stroke-linecap:round;stroke-miterlimit:10">
        <g transform="matrix(0.669232,0,0,0.712663,3119.49,5084.36)" id="g116">
            <path d="m 4422.44,5743.93 c -263.96,0 -370.83,-31.83 -412.36,-280.61 -4.58,-27.39 -25.28,-112.19 -1.86,-135.61 34.69,-34.7 95.37,-45.22 143.66,-45.22 34.97,0 86.11,-9.64 115.96,10.25 38.06,25.38 53.07,61.17 83.44,93.7 91.15,97.61 118.39,189.89 118.39,316.04" style="fill:#ddc080;stroke:#de0e5a;stroke-width:21.1px;stroke-linejoin:round;stroke-miterlimit:1.5" id="path114" />
        </g>
        <g transform="matrix(0.863308,-0.129374,-0.128911,0.878007,2962.63,4745.6)" id="g124">
            <g transform="matrix(-0.970844,-0.936496,-0.700352,0.713897,11556.3,9642.75)" id="g122">
                <path d="m 6055.89,1986.73 79.84,82.64 -82.64,79.83" style="fill:none;stroke:#d53b3b;stroke-width:54.17px" id="path118" />
                <path d="m 5785.41,2063.33 c 0,0 252.3,4.35 350.32,6.04" style="fill:none;stroke:#d53b3b;stroke-width:54.17px;stroke-linejoin:round;stroke-miterlimit:1.5" id="path120" />
            </g>
        </g>
    </g>
    <g transform="matrix(0.18579707,0,0,0.18579707,-582.22979,-749.09773)" id="g144" style="clip-rule:evenodd;fill-rule:evenodd;stroke-linecap:round;stroke-miterlimit:10">
        <text x="3279.49" y="4311.6499" style="font-weight:700;font-size:200px;font-family:Arial-BoldMT, Arial, sans-serif" id="text140">0</text>
        <text x="3390.72" y="4245.0498" style="font-weight:700;font-size:116.6px;font-family:Arial-BoldMT, Arial, sans-serif" id="text142">o</text>
    </g>
</svg>
