<?xml version="1.0" encoding="UTF-8" standalone="no"?>
<!-- Created with Inkscape (http://www.inkscape.org/) -->

<svg version="1.1" id="svg1678" width="128" height="128" viewBox="0 0 128 128" xml:space="preserve"
    xmlns="http://www.w3.org/2000/svg"
    xmlns:svg="http://www.w3.org/2000/svg">
    <defs id="defs1682" />
    <rect style="fill:#ffffff;stroke-width:75.5906;stroke-linejoin:bevel;stroke-opacity:0" id="rect4906" width="109.62605" height="110.55247" x="10.962605" y="8.6465626" />
    <path style="fill:#000000;stroke-width:1.33333" d="M 31.21482,123.7466 C 12.045983,124.46748 7.951994,123.08447 6.5481517,121.17545 4.2565189,118.05916 6.0651446,15.446592 5.8495496,8.9774047 L 5.7121005,4.8530778 63.798679,4.526302 C 104.46511,4.2975262 120.54923,3.0844087 121.8861,4.1939112 c 1.44039,1.195418 2.94901,9.1008798 2.36598,28.9706028 -0.95697,32.613836 -0.10081,37.808668 0.18918,58.912688 0.13099,9.533268 -0.25425,19.698118 -0.28499,22.588418 -0.0308,2.89029 -0.64685,5.84603 -1.36912,6.5683 -3.20705,3.20705 -22.0151,-0.10316 -91.57233,2.51268 z m 82.65564,-10.99672 c 0.79687,-0.29714 0.68423,-23.078613 0.14357,-49.991243 l -0.98302,-48.932054 -47.699977,0.458644 c -26.234988,0.252254 -48.199595,0.958532 -48.810239,1.569506 -1.165555,1.166184 -1.942472,95.375867 -0.443595,95.978857 2.496027,1.00414 95.246561,1.8659 97.793261,0.91629 z M 52.743867,101.20769 C 46.940175,98.115899 44.0772,95.312773 44.0772,92.722193 c 0,-2.000255 -0.702585,-2.114267 -5.816902,-0.943946 -7.355417,1.683159 -13.767028,0.48803 -18.740896,-3.493317 -4.494924,-3.597975 -4.054857,-6.8672 1.192964,-8.862418 2.277036,-0.865727 4.425817,-3.668348 6.624779,-8.640587 3.238508,-7.322844 5.254056,-8.96739 13.021828,-10.624908 3.834207,-0.818157 6.338382,-3.843506 21.051561,-25.432845 7.990829,-11.725322 8.978592,-12.688284 12.666667,-12.348655 6.898847,0.635304 5.961432,5.216191 -4.477186,21.878778 -12.027167,19.1983 -12.944667,21.054816 -15.958057,32.290355 l -2.539241,9.467648 3.922875,-3.300881 c 4.780018,-4.022119 9.051609,-4.358548 9.051609,-0.712904 0,1.423388 -0.609787,2.964846 -1.355083,3.425464 -2.968956,1.834916 0.581316,3.319892 7.937179,3.319892 5.165722,0 8.296489,0.648777 9.369431,1.941593 2.847052,3.430488 0.121506,4.725073 -9.947902,4.725073 h -9.838995 l 0.251017,3.614416 c 0.306951,4.419789 -2.215828,5.130409 -7.748981,2.182739 z m -8.76344,-19.976966 c 1.519892,-1.93223 2.76344,-4.360879 2.76344,-5.396999 0,-2.398832 -6.662756,-8.642434 -8.564705,-8.025898 -1.592636,0.516269 -6.644089,9.264231 -8.047274,13.936042 -0.840924,2.799797 -0.501111,3 5.092021,3 4.886324,0 6.503407,-0.648779 8.756518,-3.513145 z M 90.743868,99.410535 C 87.74321,96.409878 87.236721,89.289701 89.786272,85.948769 c 2.172817,-2.847257 9.484497,-6.538233 12.951988,-6.538233 4.14241,0 9.33894,5.844674 9.33894,10.503759 0,2.313164 -1.43465,5.663295 -3.45186,8.060607 -2.89386,3.439158 -4.4026,4.102298 -9.333331,4.102298 -4.103697,0 -6.687521,-0.80604 -8.548141,-2.666665 z m 11.733332,-5.6 c 2.85193,-2.851925 1.917,-6.4 -1.68642,-6.4 -3.396931,0 -6.137096,3.4102 -5.088964,6.333334 0.759481,2.118114 4.685304,2.156743 6.775384,0.06667 z" id="path4848" />
</svg>
