<?xml version="1.0" encoding="UTF-8" standalone="no"?>
<!-- Created with Inkscape (http://www.inkscape.org/) -->

<svg version="1.1" id="svg182" width="170.66667" height="170.66667" viewBox="0 0 170.66667 170.66667"
    xmlns="http://www.w3.org/2000/svg"
    xmlns:svg="http://www.w3.org/2000/svg">
    <defs id="defs186" />
    <g id="g188">
        <ellipse style="fill:#ffff00;stroke-width:1.88976;stroke-dasharray:1.88976, 11.3386;fill-opacity:1" id="path922" cx="21.915634" cy="65.535156" rx="14.50455" ry="14.081059" />
        <ellipse style="fill:#0000ff;stroke-width:1.88976;stroke-dasharray:1.88976, 11.3386;fill-opacity:1" id="path924" cx="49.442516" cy="97.826309" rx="14.292805" ry="14.186932" />
        <ellipse style="fill:#f9f9f9;stroke-width:1.88976;stroke-dasharray:1.88976, 11.3386" id="path862" cx="123.34161" cy="82.051285" rx="42.243179" ry="43.090157" />
        <ellipse style="fill:#ff0000;stroke-width:1.88976;stroke-dasharray:1.88976, 11.3386;fill-opacity:1" id="path918" cx="62.147232" cy="52.301079" rx="14.928041" ry="14.822167" />
        <path style="fill:#000000;stroke-width:1.33333" d="M 105.76191,124.19361 C 91.538687,119.27863 84.021934,111.44546 80.428192,97.793465 c -2.485441,-9.441762 -1.609141,-22.500066 2.245963,-33.46853 1.621588,-4.613709 2.136915,-7.823666 1.335524,-8.318953 -2.216472,-1.369854 9.560084,-10.087541 20.035051,-14.831099 12.95431,-5.86632 24.99587,-6.258858 35.28861,-1.150357 9.43788,4.684223 19.38986,15.052539 24.59205,25.620835 4.12383,8.377606 4.37921,9.678247 3.8148,19.428181 -0.50044,8.644778 -1.33945,11.733337 -4.85803,17.883148 -5.30902,9.27921 -13.08038,16.39323 -22.42013,20.5237 -9.05231,4.00337 -24.27356,4.31622 -34.70012,0.71322 z m 32.25021,-7.98613 c 13.84296,-6.54891 21.90606,-18.587959 21.9586,-32.786513 C 160.02112,69.801669 150.7556,55.900745 137.02776,49.000001 127.28984,44.104917 120.88379,44.296452 106,49.927702 l -11.999998,4.540175 -3.151324,7.766062 c -9.404232,23.175608 -4.543982,45.627321 11.404382,52.682041 13.13746,5.81132 25.27828,6.24981 35.75906,1.2915 z m -17.10269,-8.99945 c -3.02845,-2.80814 -3.57609,-4.41866 -3.57609,-10.516631 0,-8.026136 -0.99687,-9.186251 -7.67775,-8.935091 -7.45471,0.280251 -13.655588,-3.97497 -13.655588,-9.370857 0,-0.932051 3.482572,-1.092661 10.472098,-0.482957 l 10.47211,0.913494 0.84964,-7.07466 c 0.4673,-3.891063 0.85485,-9.260467 0.86123,-11.932008 0.0134,-5.627436 2.39199,-7.194799 6.52519,-4.299795 2.48912,1.743453 2.81973,3.284427 2.81973,13.142898 0,12.198423 -0.46791,11.529269 9.33334,13.347579 8.48197,1.573561 9.33333,2.072166 9.33333,5.466149 0,4.142219 -4.17525,5.859619 -10.60789,4.363321 -9.34484,-2.173705 -9.39211,-2.132978 -9.39211,8.091841 0,5.090057 -0.49076,9.557947 -1.09057,9.928657 -0.59981,0.3707 -2.69981,-0.81817 -4.66667,-2.64194 z m -73.576096,7.46333 C 34.205294,111.79972 28.070157,99.128177 34.612689,88.398067 37.817085,83.14268 42.86165,80.522 50.48016,80.154828 c 5.219853,-0.251569 6.336762,0.269891 10.937861,5.106651 6.84056,7.190923 8.006291,13.301719 3.983939,20.883931 -2.708825,5.10618 -5.125,6.8752 -12.068626,8.83611 -1.1,0.31064 -3.8,0.17107 -6,-0.31016 z m 11.579178,-8.89384 c 2.684932,-2.42983 3.305816,-10.965869 1.097725,-15.091726 -0.727704,-1.359727 -3.462989,-3.178459 -6.078412,-4.041626 -11.895578,-3.925894 -20.856642,8.593482 -12.774116,17.846542 4.547759,5.20638 12.765595,5.80198 17.754803,1.28681 z M 19.333334,82.671362 C 6.2052929,79.799722 0.07015612,67.128176 6.6126875,56.398066 9.8170846,51.14268 14.86165,48.522 22.480159,48.154828 c 5.219854,-0.25157 6.336763,0.26989 10.937862,5.10665 6.84056,7.190923 8.00629,13.301719 3.983938,20.883927 -2.708825,5.106186 -5.125,6.875202 -12.068625,8.836111 -1.1,0.310646 -3.8,0.171075 -6,-0.310154 z m 11.36744,-7.764201 c 2.193884,-1.7765 2.996196,-3.841121 2.996196,-7.710234 0,-7.946067 -1.379635,-10.825435 -5.950413,-12.418818 -6.752887,-2.354068 -10.350395,-1.712731 -14.680206,2.61708 -3.5095533,3.509554 -3.9549708,4.733308 -3.275784,9 1.529951,9.611244 13.523397,14.493449 20.910207,8.511972 z m 28.63256,-5.569133 C 46.205294,66.466388 40.070157,53.794842 46.612689,43.064733 c 3.204396,-5.255387 8.248961,-7.876067 15.867471,-8.243239 5.219853,-0.251569 6.336763,0.269891 10.937861,5.106651 6.840561,7.190923 8.006291,13.301719 3.983939,20.883927 -2.708825,5.106185 -5.125,6.875201 -12.068625,8.836111 -1.1,0.310645 -3.8,0.171074 -6.000001,-0.310155 z m 11.579178,-8.893845 c 2.70206,-2.445333 3.30138,-10.974157 1.064815,-15.153218 -0.745806,-1.393548 -3.735991,-3.174587 -6.644856,-3.957864 -15.299106,-4.11962 -21.449866,15.968716 -6.665803,21.770464 3.053575,1.198323 9.539537,-0.210209 12.245844,-2.659382 z" id="path808" />
    </g>
</svg>
