<?xml version="1.0" encoding="UTF-8" standalone="no"?>
<!-- Created with Inkscape (http://www.inkscape.org/) -->

<svg version="1.1" id="svg373" width="170.66667" height="170.66667" viewBox="0 0 170.66667 170.66667"
    xmlns="http://www.w3.org/2000/svg"
    xmlns:svg="http://www.w3.org/2000/svg">
    <defs id="defs377" />
    <g id="g379">
        <circle style="fill:#ffffff;stroke-width:1.88976;stroke-dasharray:1.88976, 11.3386" id="path8493" cx="113.33172" cy="71.540009" r="44.982712" />
        <path style="fill:#000000;stroke-width:1.33333" d="M 104.81578,119.91711 C 85.705194,117.69948 71.828853,106.9947 67.135072,90.848664 64.281701,81.033415 65.255359,62.134961 69.131807,52.092522 70.845625,47.652653 71.464096,44.294176 70.730636,43.41041 67.50958,39.529275 96.423809,23.280402 109.25548,21.76068 c 23.00122,-2.724154 50.8145,21.518048 53.0566,46.244421 0.96046,10.59207 -1.44566,20.021717 -7.59221,29.75409 -5.88468,9.317729 -13.81243,15.732769 -25.26492,20.444059 -7.90115,3.25035 -10.08771,3.40244 -24.63917,1.71386 z m 25.55463,-11.97955 c 13.22253,-6.60738 21.35382,-18.107532 22.61173,-31.979977 0.84124,-9.277286 -0.8929,-14.856724 -7.86063,-25.290987 -4.20807,-6.301635 -7.21257,-9.042669 -14.22803,-12.980338 -11.90297,-6.680955 -19.89088,-6.726924 -36.884703,-0.212269 l -11.991225,4.596888 -3.784797,9.297895 c -7.774492,19.099157 -5.964695,39.565955 4.416643,49.947288 6.425532,6.42554 18.262372,10.50216 30.804312,10.60905 7.21876,0.0615 10.23798,-0.65015 16.9167,-3.98755 z m -17.97322,-6.99199 c -0.88154,-0.88673 -2.53154,-2.385891 -3.66666,-3.331471 -1.46537,-1.22068 -2.06386,-4.172109 -2.06386,-10.177824 0,-7.532359 -0.31371,-8.540628 -2.86492,-9.207781 -1.5757,-0.412056 -4.543837,-0.413408 -6.595859,-0.0031 -2.512144,0.502428 -5.235336,-0.183575 -8.33612,-2.099966 -5.421464,-3.350649 -7.007908,-6.558814 -4.488967,-9.077756 1.477764,-1.477764 3.597028,-1.535182 11.485802,-0.311197 5.320524,0.825507 9.961854,1.212753 10.314054,0.860545 0.35221,-0.352206 0.99797,-6.159902 1.43503,-12.905991 0.85834,-13.248572 1.91814,-14.909493 7.80267,-12.228323 3.11046,1.417283 3.24831,2.017766 3.24831,14.149941 v 12.669849 l 3.66667,0.769026 c 16.83888,3.531688 17.90114,4.097125 16.65432,8.865007 -1.00764,3.853196 -6.25084,5.384629 -12.59069,3.677485 -8.08948,-2.178271 -8.89111,-1.356841 -9.33725,9.567871 -0.39101,9.574815 -1.60408,11.860095 -4.66253,8.783655 z M 18.772234,100.13705 C 12.127364,99.661391 7.3372719,98.704965 7.036856,97.793871 6.7576708,96.947166 11.210166,90.721014 16.93129,83.957976 22.652414,77.194939 30.164169,68.054244 33.624077,63.645321 46.88596,46.74585 51.980104,42.668268 53.031817,48.110489 c 0.200832,1.039232 -4.638285,8.17626 -10.753596,15.860063 l -11.118746,13.970551 3.08693,4.548845 c 1.69781,2.501864 3.086929,5.965118 3.086929,7.696116 0,3.046224 0.343808,3.147271 10.708514,3.147271 8.492817,0 10.874426,0.432364 11.510376,2.089623 0.441025,1.149293 0.272195,2.584751 -0.375179,3.189905 -1.644059,1.536837 -26.912191,2.490027 -40.404811,1.524187 z m 11.894433,-8.656003 c 0,-1.018759 -1.0787,-3.184425 -2.39711,-4.812595 l -2.397111,-2.960305 -3.670744,4.812593 -3.670746,4.812595 h 6.067856 c 4.289701,0 6.067855,-0.542804 6.067855,-1.852288 z M 42.963342,81.924396 C 37.108735,77.82367 41.122989,69.333335 48.91643,69.333335 c 2.824116,0 5.750238,3.3787 5.750238,6.639617 0,1.712732 -6.011991,8.02705 -7.642719,8.02705 -0.603496,0 -2.430768,-0.934023 -4.060607,-2.075606 z" id="path8444" />
    </g>
</svg>
