<?xml version="1.0" encoding="UTF-8" standalone="no"?>
<!-- Created with Inkscape (http://www.inkscape.org/) -->

<svg version="1.1" id="svg182" width="170.66667" height="170.66667" viewBox="0 0 170.66667 170.66667"
    xmlns="http://www.w3.org/2000/svg"
    xmlns:svg="http://www.w3.org/2000/svg">
    <g id="g188">
        <ellipse id="color-selector-color" style="fill:#999999;stroke-width:1.88976;stroke-dasharray:1.88976, 11.3386" cx="86.074448" cy="81.839531" rx="74.851944" ry="74.428459" />
        <path style="fill:#000000;stroke-width:1.33333" d="M 65.333335,166.67659 C 55.000454,165.78743 46.69372,162.2288 36.324299,154.24906 21.883218,143.13596 12.973282,130.43775 8.028936,113.92322 5.1389332,104.27037 8.5920312,65.213407 13.326858,54.000001 13.946154,52.533334 16.085854,46.89844 18.081747,41.478011 24.563852,23.873979 40.077094,12.027497 65.333335,5.3949622 68.633335,4.5283501 73.175933,3.2599605 75.427999,2.5763186 85.441158,-0.46329817 117.70973,1.3833388 129.68197,5.6811169 137.84979,8.613186 160,29.636218 160,34.456317 c 0,0.695452 1.88179,5.677285 4.18176,11.070739 4.74674,11.131136 5.20756,17.188225 2.62274,34.472946 -3.53078,23.610348 -7.81571,34.241228 -19.52147,48.432678 -7.53531,9.1354 -21.70956,21.65143 -28.24395,24.93972 -2.03816,1.02567 -5.34386,2.96886 -7.34599,4.3182 -10.1697,6.85392 -28.914274,10.48722 -46.359755,8.98599 z m 36.313085,-20.35237 c 27.50698,-13.70709 45.33286,-34.71537 48.99078,-57.736928 0.8087,-5.089676 2.11524,-13.009975 2.90342,-17.600664 1.38508,-8.067283 1.26353,-8.794327 -3.63063,-21.717635 C 145.25139,36.967726 144.19912,35.331119 136.75648,28.811169 123.40949,17.118843 122.1377,16.696738 100.66667,16.832984 73.467515,17.005579 63.846809,18.533799 52.533452,24.4788 40.26249,30.927007 35.421217,36.097201 30.630151,47.870222 24.544214,62.825112 22,77.02229 22,96.028038 c 0,16.166012 0.138256,16.975542 4.36577,25.562842 3.111572,6.3205 6.558932,10.74166 12,15.38974 16.570208,14.15521 22.621323,16.56569 39.947316,15.9131 9.9688,-0.37548 12.117196,-0.98036 23.333334,-6.5695 z" />
    </g>
</svg>
