<?xml version="1.0" encoding="UTF-8" standalone="no"?>
<!-- Created with Inkscape (http://www.inkscape.org/) -->

<svg version="1.1" id="svg182" width="170.66667" height="170.66667" viewBox="0 0 170.66667 170.66667"
    xmlns="http://www.w3.org/2000/svg"
    xmlns:svg="http://www.w3.org/2000/svg">
    <defs id="defs186" />
    <g id="g188">
        <ellipse style="fill:#ffff00;fill-opacity:1;stroke-width:3.84166;stroke-dasharray:3.84166, 23.0501" id="path922" cx="44.977325" cy="65.401756" rx="29.486071" ry="28.625164" />
        <ellipse style="fill:#0000ff;fill-opacity:1;stroke-width:3.84166;stroke-dasharray:3.84166, 23.0501" id="path924" cx="100.93629" cy="131.04593" rx="29.055616" ry="28.840389" />
        <ellipse style="fill:#ff0000;fill-opacity:1;stroke-width:3.84166;stroke-dasharray:3.84166, 23.0501" id="path918" cx="126.7635" cy="38.498405" rx="30.346979" ry="30.13175" />
        <path style="fill:#000000;stroke-width:2.71051" d="M 96.648567,165.28997 C 69.960782,159.45225 57.488759,133.69247 70.788969,111.8794 77.303135,101.19581 87.558151,95.868271 103.0457,95.121852 c 10.61136,-0.51141 12.8819,0.548658 22.2354,10.381228 13.90607,14.61832 16.27587,27.04086 8.09889,42.45462 -5.50673,10.38027 -10.41853,13.97648 -24.53412,17.96278 -2.23617,0.6315 -7.72496,0.34777 -12.197303,-0.63051 z M 120.1877,147.20982 c 5.45815,-4.93956 6.72034,-22.29234 2.23154,-30.67973 -1.47934,-2.76417 -7.03985,-6.46144 -12.3567,-8.21616 -24.182338,-7.98089 -42.399143,17.46955 -25.968304,36.27995 9.245068,10.58397 25.950974,11.79476 36.093464,2.61594 z M 39.727809,100.23767 C 13.040022,94.399963 0.56799829,68.640177 13.868207,46.827106 20.382375,36.143515 30.637393,30.815976 46.12494,30.069558 56.736299,29.558145 59.006845,30.618213 68.360347,40.450786 82.266413,55.0691 84.636207,67.49164 76.459232,82.905391 70.952504,93.285676 66.0407,96.881881 51.925114,100.86818 c -2.236172,0.63151 -7.72496,0.34778 -12.197305,-0.63051 z M 62.836498,84.453953 c 4.459913,-3.611419 6.09092,-7.808554 6.09092,-15.674013 0,-16.153434 -2.804638,-22.006856 -12.096501,-25.246019 -13.727837,-4.785548 -21.041154,-3.481784 -29.843159,5.320221 -7.134517,7.134517 -8.039998,9.622267 -6.659289,18.295958 3.110213,19.538546 27.4915,29.463503 42.508029,17.303853 z M 121.04318,73.13255 C 94.355392,67.294839 81.883369,41.535053 95.183579,19.721984 101.69775,9.0383914 111.95276,3.7108524 127.44031,2.9644343 c 10.61136,-0.5114107 12.88191,0.5486571 22.23541,10.3812297 13.90606,14.618313 16.27586,27.040854 8.09888,42.454605 -5.50673,10.380283 -10.41853,13.976488 -24.53412,17.962791 -2.23617,0.631505 -7.72496,0.347773 -12.1973,-0.63051 z m 23.53913,-18.080157 c 5.49297,-4.971078 6.71132,-22.30919 2.16464,-30.804737 -1.51614,-2.832922 -7.59484,-6.453568 -13.50822,-8.045879 -31.10131,-8.3747101 -43.605095,32.46255 -13.55081,44.256832 6.20757,2.436052 19.39278,-0.42733 24.89439,-5.406216 z" id="path808" />
    </g>
</svg>
