<?xml version="1.0" encoding="UTF-8" standalone="no"?>
<!-- Created with Inkscape (http://www.inkscape.org/) -->

<svg version="1.1" id="svg627" width="170.66667" height="170.66667" viewBox="0 0 170.66667 170.66667" xml:space="preserve"
    xmlns="http://www.w3.org/2000/svg"
    xmlns:svg="http://www.w3.org/2000/svg">
    <defs id="defs631" />
    <rect style="fill:#ffffff;stroke:none;stroke-width:75.5906;stroke-linejoin:bevel;stroke-opacity:0;fill-opacity:1" id="rect369" width="147.60918" height="158.72618" x="9.8817854" y="6.3819866" />
    <path style="fill:#000000;stroke-width:1.33333" d="M 8.0655375,166.78912 C 7.0747629,164.93784 6.4275469,150.46442 6.1665864,124.32365 5.9488461,102.51231 5.048191,67.422249 4.1651306,46.345738 3.1512475,22.146807 3.0228746,7.1591091 3.8167827,5.6756782 4.9263742,3.6023874 7.6333697,3.2862441 26.870334,2.9833101 38.858317,2.7945294 54.363968,1.9534314 61.327336,1.1142032 70.110504,0.05565191 85.62785,-0.09466242 111.994,0.62340241 c 44.79194,1.21987869 43.72671,1.21837789 48.07308,0.0677341 2.90496,-0.76905135 3.75372,-0.24414957 5.82535,3.60262389 2.13296,3.9606728 2.33353,6.7425706 1.66584,23.1045386 -0.41751,10.230936 -1.50304,27.001702 -2.41232,37.268369 -0.96612,10.908559 -1.55367,35.920882 -1.41368,60.181782 0.20497,35.52701 -0.0497,41.75518 -1.76593,43.17949 -1.5502,1.28656 -9.79492,1.46569 -36.31923,0.78913 -18.87258,-0.48139 -41.213775,-1.31639 -49.647109,-1.85557 -15.420356,-0.98591 -52.458227,0.0584 -61.549035,1.73545 -4.120867,0.76019 -5.1168008,0.46263 -6.3854285,-1.90783 z M 151.76059,121 c -0.25277,-23.862797 0.23273,-48.50054 1.18895,-60.333332 0.8889,-11 1.7889,-26.600001 2,-34.666667 L 155.33334,11.333334 92.715006,11.15008 C 58.274922,11.04929 26.960955,10.598284 23.128408,10.147843 19.026612,9.6657574 15.823495,9.8735695 15.341764,10.653026 c -0.450108,0.72829 0.198004,17.979297 1.44025,38.33557 2.126869,34.852316 2.603828,48.980013 3.038158,89.991594 L 20,155.96038 47.000001,155.83971 c 14.85,-0.0664 38.928122,0.58207 53.506939,1.44101 14.57881,0.85895 28.67881,1.20552 31.33333,0.77018 2.76175,-0.45294 7.39309,0.0235 10.8264,1.11364 3.3,1.04785 6.79227,1.9645 7.76059,2.03701 1.43136,0.1072 1.68069,-7.41052 1.33333,-40.20151 z M 44.679912,143.5707 c -1.107284,-2.65011 -1.996107,-7.98766 -1.975163,-11.86121 0.02094,-3.87355 -1.007147,-20.99282 -2.284648,-38.042822 l -2.322731,-31 h -4.28678 c -7.170403,0 -8.746506,-2.82168 -7.723255,-13.826856 0.486507,-5.232438 1.734367,-10.405663 2.775538,-11.506478 1.451758,-1.534925 6.45466,-2.155025 21.514381,-2.666667 l 19.622747,-0.666666 0.432684,-5.316427 c 0.697539,-8.5707 1.06315,-8.710475 21.929018,-8.38357 21.022397,0.329358 22.904597,1.062747 22.026697,8.58257 l -0.5196,4.45076 9.39894,0.05807 c 11.68965,0.07221 20.69448,1.744233 22.22062,4.12592 1.46895,2.292422 -0.0591,25.24477 -1.82961,27.482679 -0.72523,0.916667 -2.65576,1.666667 -4.29007,1.666667 -2.88881,0 -2.9974,0.523841 -3.90354,18.830939 -0.51264,10.357016 -0.51343,28.357011 -0.001,40.000001 l 0.92988,21.16906 h -34.66234 c -19.06428,0 -39.246899,0.38753 -44.850259,0.8612 l -10.187925,0.86119 z m 16.263523,-6.8128 c 0.152221,-0.11014 -0.587018,-5.87577 -1.642751,-12.81244 C 58.186498,116.62475 57.371132,101.404 57.35725,87.666668 L 57.333334,64.000001 H 53.12955 48.925766 l 0.844603,19.000001 c 1.752415,39.421968 2.466749,52.384058 2.977719,54.032748 0.352932,1.13877 1.746001,1.4068 4.222634,0.81244 2.03277,-0.48784 3.820491,-0.97713 3.972713,-1.08729 z m 21.329709,-5.09123 C 81.865963,128.55 80.620351,121.07492 79.505119,115.05538 78.306755,108.58713 77.486374,96.589741 77.499306,85.722048 c 0.012,-10.113792 -0.02039,-19.174932 -0.07204,-20.135867 -0.06408,-1.191976 -1.682733,-1.615657 -5.093926,-1.333333 l -5.000005,0.41382 -0.43396,20 c -0.408038,18.805292 1.030374,36.236112 3.933509,47.666672 1.207972,4.75616 1.535941,5 6.725247,5 h 5.455344 z m 22.513266,2 c -1.71094,-8.26748 -3.45092,-34.142272 -3.45196,-51.333335 l -0.001,-18.333334 h -6.666671 -6.666667 v 22.256621 c 0,19.057658 2.019802,40.009448 4.763245,49.410048 0.298265,1.02203 2.864252,1.66667 6.634182,1.66667 6.001741,0 6.129761,-0.0871 5.388981,-3.66667 z M 125.51967,102 c -0.33258,-24.00368 -0.94775,-34.967972 -2,-35.646248 -0.83582,-0.538771 -3.71848,-0.988771 -6.40591,-1 l -4.88624,-0.02042 -0.95195,10.158728 c -1.49599,15.964485 1.33669,56.10516 4.29734,60.89558 0.37116,0.60055 2.86909,0.909 5.55096,0.68547 L 126,136.66667 Z m 10.70107,-50.818166 c 0.43266,-5.44002 0.1296,-6.288234 -2.6202,-7.333708 -1.75674,-0.667912 -23.66268,-0.798064 -50.354989,-0.29918 l -47.24555,0.883028 v 4.314088 4.314088 l 17.666667,0.787223 c 9.716667,0.432972 23.966667,0.7777 31.666667,0.766063 7.7,-0.0116 19.700005,0.510078 26.666665,1.159368 6.96667,0.649288 15.15625,1.266026 18.19908,1.370528 l 5.5324,0.190002 z M 96.333335,33.797715 c 4.950005,-0.467497 9.000005,-1.273385 9.000005,-1.790864 0,-1.04637 -24.085788,-3.032178 -25.05246,-2.065506 -0.335673,0.335673 -0.255022,1.53619 0.179224,2.667818 0.876172,2.28327 2.775883,2.425516 15.873231,1.188552 z" id="path308" />
</svg>
