<?xml version="1.0" encoding="UTF-8" standalone="no"?>
<!-- Created with Inkscape (http://www.inkscape.org/) -->

<svg version="1.1" id="svg627" width="170.66667" height="170.66667" viewBox="0 0 170.66667 170.66667" xml:space="preserve"
    xmlns="http://www.w3.org/2000/svg"
    xmlns:svg="http://www.w3.org/2000/svg">
    <defs id="defs631" />
    <rect style="fill:#ffffff;fill-opacity:1;stroke:none;stroke-width:72.9064;stroke-linejoin:bevel;stroke-opacity:0" id="rect369" width="144.64474" height="150.67987" x="13.057964" y="11.252128" />

    <path style="fill:#000000;stroke-width:1.33333" d="m 31.301904,167.2682 c -3.3,-0.69105 -7.545766,-0.92725 -9.435035,-0.52488 -5.492516,1.16976 -10.139139,-1.34105 -11.651373,-6.29586 -0.7412855,-2.42882 -1.7141693,-13.41603 -2.1619636,-24.41603 -0.4477943,-11 -1.3695247,-29.9 -2.0482899,-41.999997 C 4.0978569,60.029447 4.2721168,9.3144797 6.3019027,7.6941895 8.4669915,5.9658933 44.585701,4.7522465 101.3019,4.5020365 c 51.54126,-0.22738 59.87529,0.4154144 62.77557,4.8418052 2.03965,3.1128923 2.84668,31.5925073 3.24674,114.5764383 0.15522,32.19687 -0.009,34.79063 -2.4049,38 -1.62658,2.17878 -4.47847,3.79495 -7.76111,4.39824 -8.28963,1.52348 -119.122495,2.3598 -125.856296,0.94968 z m 115.333336,-12.79778 8,-1.10566 -0.14896,-36 c -0.0819,-19.799994 -0.23193,-50.423751 -0.33333,-68.052789 l -0.18438,-32.052795 -41,-0.613872 C 90.418571,16.307674 59.368571,16.054572 43.968571,16.082856 l -28.000001,0.05143 0.358987,27.948578 c 0.45602,35.503055 4.648073,108.596606 6.389852,111.414866 0.969784,1.56914 111.777771,0.65052 123.917831,-1.02731 z M 40.704317,140.11467 c -1.882225,-2.26795 -0.527032,-14.21229 1.782648,-15.71182 0.814883,-0.52905 20.381606,-0.67628 43.481606,-0.32717 23.099999,0.3491 42.691309,0.63196 43.536229,0.62858 0.84493,-0.003 2.17155,1.81629 2.94804,4.04372 1.68824,4.8429 0.1486,9.82746 -3.66612,11.86905 -1.70214,0.91096 -17.56545,1.4144 -44.567234,1.4144 -34.830375,0 -42.19357,-0.32433 -43.515169,-1.91676 z M 64.968571,93.585889 C 53.051904,81.703529 43.301904,71.263921 43.301904,70.386759 c 0,-2.500632 4.252896,-4.098913 8.991193,-3.378978 2.37849,0.361385 6.42849,0.26236 9.000001,-0.220059 l 4.675473,-0.877124 V 50.066254 c 0,-19.08433 0.882717,-20.71049 10.527047,-19.393144 3.376791,0.461247 11.582833,1.004153 18.235648,1.206458 6.652814,0.202304 12.888084,0.857344 13.856154,1.455644 1.34397,0.830623 1.59209,4.115131 1.04941,13.892019 -0.39089,7.042311 -0.42616,13.554201 -0.0784,14.470868 0.39687,1.046041 3.2811,1.666667 7.74551,1.666667 3.91224,0 8.06224,0.364193 9.22222,0.809318 3.82387,1.467358 2.30173,6.884714 -3.89476,13.861642 -3.3021,3.717984 -8.70244,10.856224 -12.00076,15.862756 -6.8539,10.403558 -18.075589,21.507868 -21.604977,21.378988 -1.314751,-0.048 -12.140455,-9.80922 -24.057122,-21.691581 z" id="path308" />
</svg>
