<?xml version="1.0" encoding="UTF-8" standalone="no"?>
<!-- Created with Inkscape (http://www.inkscape.org/) -->

<svg version="1.1" id="svg192" width="170.66667" height="170.66667" viewBox="0 0 170.66667 170.66667"
    xmlns="http://www.w3.org/2000/svg"
    xmlns:svg="http://www.w3.org/2000/svg">
    <defs id="defs196" />
    <g id="g198">
        <circle style="fill:#ffffff;stroke-width:3.90444;stroke-dasharray:3.90444, 23.4267" id="path8719" cx="64.464653" cy="128.17104" r="27.647684" />
        <rect style="fill:#ffffff;stroke-width:3.55678;stroke-dasharray:3.55678, 21.3407" id="rect8717" width="39.135052" height="40.297482" x="109.99633" y="89.653587" />
        <circle style="fill:#ffffff;stroke-width:1.88976;stroke-dasharray:1.88976, 11.3386" id="path8607" cx="119.71371" cy="83.686371" r="39.424206" />
        <path style="fill:#ffffff;stroke:#000000;stroke-width:1.99258px;stroke-linecap:butt;stroke-linejoin:miter;stroke-opacity:1" d="M 92.331219,15.146454 63.206137,66.423013 120.63589,69.294501 Z" id="path8663" />
        <path style="fill:#000000;stroke-width:2.47814" d="m 54.9132,159.2522 c -17.480355,-4.65938 -28.5738,-23.51407 -24.019695,-40.82448 1.128949,-4.29121 5.991991,-11.26099 10.806761,-15.48841 7.425596,-6.519757 10.715482,-7.67786 21.678151,-7.631119 8.463303,0.03607 14.768423,1.532913 18.26778,4.33675 8.306505,6.655539 15.701009,20.779629 15.711211,30.009669 0.01245,11.27164 -8.817224,24.87304 -18.87506,29.07549 -9.236507,3.85924 -10.910192,3.89632 -23.569148,0.5221 z m 25.106462,-16.91438 c 12.235365,-12.23536 1.808131,-34.69401 -16.107938,-34.69401 -18.537496,0 -27.798615,20.75047 -14.981508,33.56759 7.855277,7.85527 23.783488,8.43239 31.089446,1.12642 z m 41.420568,-6.8633 -16.81582,-0.8016 0.70788,-24.04085 0.70789,-24.040845 10.52266,-2.214537 c 6.16889,-1.298266 15.90961,-1.300674 23.54238,-0.0058 l 13.0197,2.208596 1.75312,21.064226 c 2.33236,28.02397 0.61422,29.45401 -33.43781,27.83072 z m 20.9134,-25.11527 -0.85871,-12.628018 h -12.15154 -12.15155 v 12.254938 12.25495 l 11.77118,0.75703 c 6.47415,0.41637 12.32877,0.58424 13.01026,0.37306 0.68149,-0.21116 0.85265,-6.06655 0.38036,-13.01196 z M 69.591705,73.135856 C 63.174838,72.239436 57.221614,70.802944 56.36232,69.94365 52.739811,66.321142 85.337356,6.0398936 90.918764,6.0398936 c 4.015558,0 11.689216,8.8403824 17.208706,19.8251534 2.39698,4.770428 7.62132,14.24933 11.60965,21.064227 7.81442,13.352563 9.09956,20.818837 4.39351,25.524887 -3.18566,3.185658 -33.869328,3.569184 -54.538925,0.681695 z m 42.643835,-11.60331 c 0,-3.96705 -18.871277,-35.53861 -20.856408,-34.892679 -2.659828,0.865468 -16.183686,26.360196 -16.262179,30.656917 -0.02946,1.61319 3.013124,3.397641 6.761318,3.965446 11.280064,1.708788 30.357269,1.878659 30.357269,0.270316 z" id="path8553" />
    </g>
</svg>
