<?xml version="1.0" encoding="UTF-8" standalone="no"?>
<!-- Created with Inkscape (http://www.inkscape.org/) -->

<svg version="1.1" id="svg627" width="170.66667" height="170.66667" viewBox="0 0 170.66667 170.66667"
    xmlns="http://www.w3.org/2000/svg"
    xmlns:svg="http://www.w3.org/2000/svg">
    <defs id="defs631" />
    <g id="g633">
        <circle style="fill:#ffffff;stroke-width:1.88976;stroke-dasharray:1.88976, 11.3386" id="path968" cx="124.02773" cy="56.482109" r="35.519676" />
        <circle style="fill:#ffffff;stroke-width:1.54898;stroke-dasharray:1.54898, 9.29393" id="path968-9" cx="40.177998" cy="89.09034" r="29.114489" />
        <circle style="fill:#ffffff;stroke-width:1.16174;stroke-dasharray:1.16174, 6.97045" id="path968-2" cx="106.26789" cy="138.29382" r="21.835865" />
    </g>
    <path style="fill:#000000;stroke-width:1.42656" d="M 47.946224,96.698999 C 37.570645,109.39258 27.635725,112.60834 16.605281,106.84352 8.817813,102.77357 1.9903137,90.924809 2.3765167,82.150264 2.9509087,69.10008 12.825632,57.271122 25.6384,54.284802 c 10.650623,-2.482392 24.509158,5.130214 28.600109,15.710277 2.795799,7.230478 0.02973,18.969548 -6.292285,26.70392 z M 46.255096,72.005656 C 38.924865,57.911927 17.185961,60.412947 11.480864,76.006364 5.642354,91.964425 21.292231,106.26557 35.075863,97.56789 41.408617,93.57184 47.163553,86.25517 48.245116,80.824878 48.640618,78.83913 47.74511,74.870481 46.255096,72.005656 Z" id="path393" />
    <path style="fill:#000000;stroke-width:1.42656" d="M 33.598109,43.742779 C 25.143677,29.696343 28.758082,15.964935 37.902987,7.5225087 c 6.456281,-5.960333 16.618891,-5.101429 24.75,-1.780756 12.093214,4.9387623 19.902382,18.2222583 18.396052,31.2919213 -1.25213,10.864175 -13.089807,21.346535 -24.429638,21.632645 -7.749713,0.19555 -17.869905,-6.36483 -23.021292,-14.92354 z m 23.818775,6.72957 C 73.156493,48.320559 78.127889,27.010464 65.36928,16.384045 52.312323,5.5091307 33.573676,15.423988 37.117416,31.332475 c 1.628126,7.308994 6.577353,15.193034 11.325498,18.041364 1.736302,1.04157 5.774587,1.5359 8.97397,1.09851 z" id="path393-9" />
    <path style="fill:#000000;stroke-width:1.62268" d="M 43.725617,151.59929 C 31.527701,146.08871 26.229192,127.6664 33.383758,115.64187 c 4.250539,-7.1438 9.308544,-9.58248 19.867959,-9.5792 10.47743,0.004 18.30225,4.09572 22.080311,11.54826 5.38591,10.62415 2.59286,22.08743 -7.659951,31.43805 -6.17891,5.6352 -15.03111,6.57797 -23.94646,2.55031 z m 20.07611,-10.12939 c 4.10678,-3.58941 4.89864,-5.46078 4.89864,-11.57663 0,-8.79452 -3.3903,-12.94981 -12.68738,-15.55018 -8.93339,-2.49865 -14.508435,0.39657 -17.200848,8.93271 -1.777538,5.63559 -1.662528,7.15086 0.939717,12.3813 5.279701,10.61206 15.682221,13.12633 24.049871,5.8128 z" id="path391" />
    <path style="fill:#000000;stroke-width:2.92873" d="M 118.97443,109.54511 C 99.956846,97.869568 97.527022,76.585575 113.3885,60.615091 c 8.43114,-8.489094 11.9584,-9.991859 23.45249,-9.991859 17.08724,0 26.97885,6.450781 31.09308,20.277245 4.10564,13.797551 -0.70865,33.486193 -9.74663,39.860163 -8.84094,6.23498 -28.04705,5.63962 -39.21301,-1.21553 z m 30.39501,-10.089362 c 10.71923,-8.20043 10.81494,-31.402978 0.32358,-35.94723 -18.92935,-8.943041 -32.34327,5.455354 -35.58306,14.013683 -6.51441,17.208677 17.29011,35.680499 35.25948,21.933547 z" id="path8404" />
    <path style="fill:#000000;fill-opacity:1;stroke:#000000;stroke-width:3.3;stroke-linecap:round;stroke-linejoin:bevel;stroke-dasharray:none;stroke-opacity:1" d="m 67.925046,77.509669 c 2.774191,-0.011 8.312614,-0.03296 11.575913,-0.04391 3.263298,-0.01096 4.25143,-0.01096 4.916285,-0.01096 0.664855,0 1.006432,0 1.17222,-0.280453 0.165789,-0.280453 0.165789,-0.851358 0.159745,-1.685703 -0.006,-0.834345 -0.01824,-1.93224 -0.0244,-2.711801 -0.0062,-0.77956 -0.0062,-1.240676 -0.0062,-1.537107 0,-0.296432 0,-0.428179 1.642627,0.979269 1.642627,1.407448 4.434594,3.920146 6.182516,5.549558 1.747922,1.629413 2.089498,2.046613 2.295108,2.338142 0.205609,0.29153 0.278803,0.456212 0.395317,0.681193 0.116514,0.224981 0.275103,0.510434 0.397816,0.71329 0.122712,0.202857 0.208108,0.323627 -1.020463,2.111661 -1.22857,1.788035 -4.276098,5.956454 -5.920589,7.82051 -1.64449,1.864055 -2.217851,1.864055 -2.528932,1.864055 -0.31108,0 -0.35987,0 -0.399183,0.0045 -0.03931,0.0045 -0.06371,0.01544 -0.0782,-0.192619 -0.01448,-0.208061 -0.01448,-0.647219 -0.01448,-1.146761 0,-0.499542 0,-1.059468 -0.01186,-1.531267 -0.01186,-0.471799 -0.03626,-0.856062 -0.06668,-1.284182 -0.03042,-0.428119 -0.06702,-0.900215 -0.105129,-1.141617 -0.03811,-0.241403 -0.0869,-0.241403 -0.1784,-0.241403 -0.0915,0 -0.225686,0 -0.811246,0 -0.58556,0 -1.62249,0 -3.440167,0 -1.817676,0 -4.416099,0 -6.178939,0.0054 -1.76284,0.0054 -2.689977,0.01641 -3.51946,0.02196 -0.829484,0.0055 -1.561435,0.0055 -2.117137,0.027 -0.555701,0.02145 -0.933875,0.06537 -1.5373,0.10411 -0.603426,0.03874 -1.43297,0.07168 -2.000617,0.10433 -0.567647,0.03265 -0.872625,0.06559 -1.233305,0.131078 -0.36068,0.06549 -0.775452,0.164301 -1.055039,0.21971 -0.279586,0.05541 -0.425976,0.06639 -0.515359,-0.03208 -0.08938,-0.09847 -0.113779,-0.318046 -0.156684,-0.834199 -0.0429,-0.516153 -0.1039,-1.328595 -0.140685,-1.88318 -0.03679,-0.554585 -0.04899,-0.851017 -0.09045,-1.14677 -0.04146,-0.295752 -0.114655,-0.592182 -0.152703,-0.834596 -0.03805,-0.242413 -0.03805,-0.429055 -0.04835,-0.559817 -0.0103,-0.130762 -0.0347,-0.207617 -0.0488,-0.510523 -0.0141,-0.302905 -0.0141,-0.829894 -0.0141,-1.318458 0,-0.488563 0,-0.9387 0.04192,-1.373551 0.04192,-0.434852 0.12731,-0.852053 0.189365,-1.081188 0.06206,-0.229135 0.09865,-0.26207 0.374119,-0.443786 0.275467,-0.181715 0.787832,-0.511084 1.042752,-0.674956 0.254919,-0.163872 0.254913,-0.163875 3.029105,-0.174873 z" id="path639" />
</svg>
