<?xml version="1.0" encoding="UTF-8" standalone="no"?>
<!-- Created with Inkscape (http://www.inkscape.org/) -->

<svg version="1.1" id="svg373" width="170.66667" height="170.66667" viewBox="0 0 170.66667 170.66667"
    xmlns="http://www.w3.org/2000/svg"
    xmlns:svg="http://www.w3.org/2000/svg">
    <defs id="defs377" />
    <g id="g379">
        <circle style="fill:#ffffff;stroke-width:1.88976;stroke-dasharray:1.88976, 11.3386" id="path8493" cx="113.33172" cy="71.540009" r="44.982712" />
        <path style="fill:#000000;stroke-width:3.34384" d="M 48.379664,151.37502 C 31.715085,150.18211 19.702079,147.78351 18.94867,145.49859 18.248506,143.37514 29.414857,127.76066 43.762786,110.79974 58.110714,93.838808 76.949342,70.914984 85.626399,59.857906 118.88569,17.475952 131.66124,7.2498395 134.29881,20.898311 c 0.50366,2.606276 -11.63229,20.505132 -26.9688,39.775237 l -27.884554,35.036554 7.741671,11.407988 c 4.257914,6.27439 7.741666,14.95984 7.741666,19.30099 0,7.63958 0.862232,7.89299 26.855737,7.89299 21.29902,0 27.27183,1.08432 28.86672,5.24053 1.10604,2.8823 0.68263,6.48227 -0.94091,7.99992 -4.12311,3.85422 -67.492719,6.24471 -101.330676,3.8225 z M 78.20955,129.66675 c 0,-2.55494 -2.705257,-7.98618 -6.011679,-12.06944 l -6.011682,-7.42412 -9.205809,12.06944 -9.205814,12.06944 H 62.99206 c 10.758082,0 15.21749,-1.36129 15.21749,-4.64532 z m 30.83866,-23.967 c -14.682685,-10.284156 -4.61539,-31.576952 14.92967,-31.576952 7.08257,0 14.42095,8.473396 14.42095,16.651405 0,4.295338 -15.07739,20.130927 -19.16708,20.130927 -1.51349,0 -6.09608,-2.34242 -10.18354,-5.20538 z" id="path8444" />
    </g>
</svg>
