<?xml version="1.0" encoding="UTF-8" standalone="no"?>
<!-- Created with Inkscape (http://www.inkscape.org/) -->

<svg version="1.1" id="svg248" width="170.66667" height="170.66667" viewBox="0 0 170.66667 170.66667"
    xmlns="http://www.w3.org/2000/svg"
    xmlns:svg="http://www.w3.org/2000/svg">
    <defs id="defs252" />
    <g id="g254">
        <rect style="fill:#ffffff;stroke-width:1.88976;stroke-dasharray:1.88976, 11.3386" id="rect483" width="128.25734" height="132.58063" x="19.969442" y="21.204664" />
        <path style="fill:#000000;stroke-width:1.33333" d="m 33.694077,157.67886 c -17.022382,-0.3754 -19.111787,-0.6785 -20.326742,-2.94866 -0.890553,-1.66401 -1.127452,-25.25828 -0.691973,-68.918042 0.567305,-56.876189 0.951173,-66.676787 2.679268,-68.404883 3.064518,-3.064517 135.02097,-5.4326 137.19319,-2.46206 2.087,2.854031 1.85297,139.187335 -0.24254,141.282845 -1.50885,1.50885 -75.139481,2.40946 -118.611203,1.4508 z M 142.02196,146.42332 c 0.50004,-0.5005 1.14278,-27.86286 1.42828,-60.805236 l 0.51911,-59.895233 -15.27351,-0.913136 c -8.40044,-0.502224 -35.038536,-0.496101 -59.195775,0.01361 l -43.922253,0.926741 -0.829577,16.12497 C 24.291967,50.743765 24.086959,77.800002 24.292662,102 l 0.374005,44 12,0.72727 c 17.108321,1.03687 104.266953,0.78541 105.355293,-0.30395 z M 47.367574,122.73288 c -2.480144,-4.79607 -2.584048,-14.26052 -0.49841,-45.399545 1.333358,-19.907342 1.964472,-23.87847 4.298312,-27.046082 3.94581,-5.355464 7.760697,-5.835443 14.586529,-1.83524 3.188158,1.868385 10.247754,5.201035 15.68799,7.405887 5.440237,2.204853 16.49134,7.370733 24.558005,11.479735 20.42588,10.404544 25.51633,15.830528 19.66667,20.962983 -1.28333,1.125988 -12.83333,7.603245 -25.66667,14.393902 -12.833332,6.79067 -23.933332,12.79702 -24.666665,13.34747 -3.834078,2.87787 -20.692486,10.62468 -23.121171,10.62468 -1.763547,0 -3.568066,-1.46526 -4.84459,-3.93379 z" id="path429" />
    </g>
</svg>
