<?xml version="1.0" encoding="UTF-8" standalone="no"?>
<!-- Created with Inkscape (http://www.inkscape.org/) -->

<svg version="1.1" id="svg3324" width="128" height="128" viewBox="0 0 128 128"
    xmlns="http://www.w3.org/2000/svg"
    xmlns:svg="http://www.w3.org/2000/svg">
    <defs id="defs3328" />
    <g id="g3330">
        <rect style="fill:#f9f9f9;stroke-width:1.88976;stroke-dasharray:1.88976, 11.3386" id="rect3920" width="112.71411" height="113.17732" x="6.6393247" y="8.1833534" />
        <path style="fill:#000000" d="M 16.661185,125.79874 C 11.249837,125.41304 6.2225148,124.59963 5.4893573,123.99117 4.7561998,123.3827 3.906628,121.22327 3.6014201,119.19243 2.4588794,111.59003 1.8623575,14.224882 2.9339395,10.24533 4.4736669,4.5272191 6.9140747,3.6212899 20.259721,3.8136458 26.441875,3.9027516 35.775,3.4797742 41,2.873696 c 11.735424,-1.36126 76.45474,0.4288905 78.55612,2.1728794 1.66734,1.3837666 1.99872,4.835942 3.97928,41.4534246 0.93815,17.344984 1.48384,40.124013 1.29361,54 l -0.32901,24 -16.5,0.66932 c -25.459923,1.03278 -80.370717,1.41117 -91.338815,0.62942 z M 117.19173,108.5 c -1.3082,-38.193034 -4.29116,-95.516077 -5.0631,-97.296713 -0.23972,-0.55297 -88.589214,0.700934 -94.284865,1.338142 l -5.656234,0.632798 -0.343766,4.276013 c -0.189071,2.351807 -0.190683,25.654318 -0.0036,51.783356 l 0.340182,47.507344 19.61882,0.17187 c 10.790352,0.0945 19.830815,0.38386 20.089918,0.64296 0.259104,0.2591 15.127552,0.35255 33.040997,0.20766 L 117.5,117.5 Z m -32.525612,1.51505 C 83.199753,108.27238 82,106.02375 82,105.0181 c 0,-1.62078 -0.656342,-1.76893 -5.778925,-1.30443 -6.522434,0.59143 -7.99809,-0.3729 -9.13528,-5.969833 C 66.500468,94.863014 65.983177,94.444046 62.463355,94 58.837405,93.542566 58.5,93.244607 58.5,90.5 c 0,-2.664892 0.39096,-3.056892 3.5,-3.509319 2.393016,-0.348232 3.463888,-1.01297 3.385822,-2.101734 -0.0628,-0.875828 -0.439588,-7.908294 -0.837311,-15.627702 -0.809479,-15.711161 -0.782058,-15.78405 5.792163,-15.396142 4.069325,0.240108 13.451175,6.07275 18.594698,11.560215 l 2.435371,2.598223 1.266355,-3.011771 C 93.550907,62.838458 94.578788,62 96.329281,62 c 3.819989,0 5.022659,2.289298 4.252539,8.094756 -0.653384,4.925432 -0.54983,5.216291 3.37205,9.471022 4.969,5.390735 5.22057,8.474276 1.00546,12.324186 -2.99967,2.739776 -3.02369,2.840703 -1.78143,7.485355 1.5416,5.763881 0.77637,7.264121 -5.283837,10.359031 -7.591462,3.8769 -10.156147,3.93133 -13.227945,0.2807 z M 92.964565,102.25 C 92.945075,101.2875 92.286021,99.375 91.5,98 89.419379,94.360333 89.65045,93.206523 93.088935,90.065951 96.109319,87.307257 96.142953,87.17712 94.604451,84.201986 93.73907,82.528523 90.886549,79.461719 88.265515,77.386865 85.644482,75.312011 81.5875,71.807469 79.25,69.598994 L 75,65.583584 v 15.135955 15.135955 l 5.40694,-0.558045 c 5.345227,-0.551676 5.426549,-0.519464 7.124982,2.822253 3.006278,5.914938 5.507282,7.816388 5.432643,4.130298 z M 27.185129,96.135578 c -0.849693,-0.538814 -1.203475,-2.390753 -1,-5.234687 L 26.5,86.5 34.861066,86.207763 C 44.659547,85.865286 48,87.292921 48,91.823053 48,93.350374 47.46,95.14 46.8,95.8 45.420403,97.179597 29.267313,97.455949 27.185129,96.135578 Z m 0.29485,-16.52656 C 25.071957,77.84823 23.994145,64.916907 26.049036,62.440915 27.854442,60.265534 31.22536,61.054514 32.710226,64 c 1.988152,3.943837 1.657523,13.357216 -0.538967,15.345012 -2.214797,2.004365 -2.30431,2.009402 -4.69128,0.264006 z M 93.468827,54.32597 c -1.219068,-1.219069 -1.513248,-2.645892 -1.082434,-5.25 0.325378,-1.966783 0.596548,-4.347637 0.602601,-5.290786 0.0061,-0.943149 0.993354,-2.240553 2.194002,-2.883121 1.867675,-0.999549 2.457266,-0.829595 4.081785,1.1766 1.525749,1.884214 1.766099,3.236503 1.223419,6.883121 -1.032894,6.940609 -3.532645,8.850914 -7.019373,5.364186 z M 26.44113,52.571952 C 24.729818,51.312976 24.520157,50.004551 24.670254,41.520503 24.853258,31.17638 25.718376,29 29.647196,29 32.944231,29 34,32.272878 34,42.493671 34,53.115156 31.574801,56.348686 26.44113,52.571952 Z M 41.25,35.889537 c -1.662638,-1.715227 -1.583886,-4.367547 0.172973,-5.82561 1.464438,-1.215376 19.786433,-1.670575 21.620361,-0.537145 1.582645,0.978128 1.078438,4.33768 -0.802049,5.344086 C 59.100419,36.551809 42.665089,37.349386 41.25,35.889537 Z M 75.699823,35.556966 C 73.43865,33.295793 73.545856,30.313418 75.934259,29.035184 78.67355,27.569159 95.300494,27.700494 96.8,29.2 c 1.572501,1.572501 1.52912,4.281966 -0.09007,5.625777 -0.709541,0.588867 -5.34462,1.376745 -10.300176,1.75084 -7.73606,0.583995 -9.25046,0.439815 -10.709926,-1.019651 z" id="path3814" />
    </g>
</svg>
