<?xml version="1.0" encoding="UTF-8" standalone="no"?>
<!-- Created with Inkscape (http://www.inkscape.org/) -->

<svg version="1.1" id="svg627" width="170.66667" height="170.66667" viewBox="0 0 170.66667 170.66667"
    xmlns="http://www.w3.org/2000/svg"
    xmlns:svg="http://www.w3.org/2000/svg">
    <defs id="defs631" />
    <ellipse style="fill:#ffffff;fill-opacity:1;stroke:none;stroke-width:6.19447;stroke-linejoin:bevel" id="path15072" cx="21.3076" cy="54.761562" rx="15.749096" ry="16.263773" />
    <ellipse style="fill:#ffffff;fill-opacity:1;stroke:none;stroke-width:5;stroke-linejoin:bevel" id="path15386" cx="63.511059" cy="40.45356" rx="16.366707" ry="16.572578" />
    <ellipse style="fill:#ffffff;fill-opacity:1;stroke:none;stroke-width:4.42162;stroke-linejoin:bevel" id="path15388" cx="20.792923" cy="101.39124" rx="16.469643" ry="16.572578" />
    <ellipse style="fill:#ffffff;fill-opacity:1;stroke:none;stroke-width:5;stroke-linejoin:bevel" id="path15390" cx="60.217133" cy="81.93647" rx="16.98432" ry="17.293125" />
    <ellipse style="fill:#ffffff;fill-opacity:1;stroke:none;stroke-width:4.82823;stroke-linejoin:bevel" id="path15392" cx="61.55529" cy="127.94854" rx="18.322477" ry="17.8078" />
    <ellipse style="fill:#ffffff;fill-opacity:1;stroke:none;stroke-width:5;stroke-linejoin:bevel" id="path15394" cx="145.24167" cy="84.715721" rx="18.837154" ry="19.866507" />
    <ellipse style="fill:#ffffff;fill-opacity:1;stroke:none;stroke-width:5;stroke-linejoin:bevel" id="path15396" cx="149.56494" cy="40.968235" rx="17.601931" ry="17.910736" />
    <ellipse style="fill:#ffffff;fill-opacity:1;stroke:none;stroke-width:5;stroke-linejoin:bevel" id="path15398" cx="146.68275" cy="129.5955" rx="17.8078" ry="18.631283" />
    <path style="fill:#000000;stroke-width:1.03203" d="M 35.612947,66.134198 C 28.140908,75.359011 20.986212,77.696011 13.042567,73.506541 7.434374,70.548778 2.5175069,61.937915 2.7956334,55.561182 3.2092854,46.077209 10.320629,37.480738 19.547826,35.310487 c 7.670113,-1.804031 17.650425,3.728285 20.596549,11.417145 2.013413,5.254613 0.02141,13.785758 -4.531428,19.406566 z M 34.39507,48.188781 C 29.116158,37.946431 13.460748,39.764 9.3521873,51.096219 5.147547,62.693437 16.417905,73.086521 26.344275,66.765648 c 4.560572,-2.904053 8.705026,-8.221304 9.48392,-12.167665 0.284824,-1.443105 -0.360082,-4.327245 -1.433125,-6.409202 z" id="path393" />
    <path style="fill:#000000;stroke-width:1.80137" d="m 48.62447,26.262354 c 9.889462,-9.203241 23.4416,-7.416261 31.155165,4.108115 4.100135,6.125776 4.543454,8.381863 2.947636,15.0006 -2.372357,9.839475 -7.750844,14.569777 -16.906618,14.869118 -9.13663,0.298722 -18.641346,-5.797581 -21.343995,-11.956165 -2.64371,-6.024308 -1.658666,-16.618087 4.147812,-22.021668 z m 2.044289,19.012958 c 3.60324,7.400119 17.995927,10.928608 22.273959,5.567539 8.180661,-9.561485 1.10336,-19.44113 -3.76052,-22.587893 -9.780059,-6.327345 -24.553801,4.615018 -18.513439,17.020354 z" id="path8404-92" />
    <path style="fill:#000000;stroke-width:1.27143" d="m 52.489839,99.206994 c -9.607702,-4.2952 -13.781079,-18.654415 -8.145777,-28.026895 3.347942,-5.56821 7.331886,-7.46904 15.649021,-7.46648 8.25256,0.003 14.415789,3.1924 17.391583,9.00126 4.242218,8.28095 2.042269,17.215975 -6.03337,24.504285 -4.866825,4.392336 -11.839271,5.127176 -18.861457,1.98783 z m 15.812972,-7.89532 c 3.23471,-2.79775 3.858419,-4.25638 3.858419,-9.023365 0,-6.85486 -2.670374,-10.09369 -9.993229,-12.12054 -7.036395,-1.94757 -11.427586,0.3091 -13.548268,6.96257 -1.40008,4.39264 -1.309492,5.57371 0.740169,9.650565 4.158563,8.27154 12.35212,10.23128 18.942909,4.53077 z" id="path391" />
    <path style="fill:#000000;stroke-width:1.80137" d="m 81.797079,123.01188 c 2.398935,13.29459 -6.428598,23.73148 -20.293722,23.99345 -7.369999,0.13925 -10.031907,1.73336 -16.755275,-5.20318 -7.044387,-7.26773 -5.5291,-14.81892 -0.832905,-22.68425 4.686366,-7.8489 14.952371,-12.55143 21.594724,-11.49712 6.497528,1.03133 14.878664,7.58534 16.287178,15.3911 z m -17.102084,-8.55514 c -8.173678,-0.96753 -18.920757,9.23541 -16.721994,15.73219 3.62385,12.05044 15.761258,11.43494 21.0375,9.04313 10.609199,-4.80934 9.3866,-23.15339 -4.315506,-24.77532 z" id="path8404-92-5" />
    <path style="fill:#000000;stroke-width:1.27143" d="m 10.345358,85.44422 c 8.806227,-5.762546 23.143323,-1.51383 27.983732,8.292834 2.875699,5.82615 2.321991,10.205456 -2.174997,17.202016 -4.46246,6.94199 -10.476782,10.40401 -16.972502,9.76853 C 9.9214748,119.80166 3.5925649,113.1219 1.8245882,102.38832 0.75910395,95.919684 3.9089406,89.65601 10.345358,85.44422 Z m -1.9027805,17.57173 c 0.6058593,4.23364 1.4960623,5.54671 5.5069445,8.12293 5.767601,3.70457 9.935867,3.20811 15.59873,-1.85788 5.441346,-4.86782 5.915743,-9.782086 1.463671,-15.162136 C 28.072651,90.56693 27.029956,90.00486 22.492041,89.52617 13.285047,88.55494 7.2080967,94.389814 8.4425775,103.01595 Z" id="path391-3" />
    <path style="fill:#000000;stroke-width:1.80137" d="m 139.11341,58.187081 c -11.26485,-7.456826 -12.70413,-21.050288 -3.30877,-31.250167 4.9941,-5.421735 7.08343,-6.381507 13.89183,-6.381507 10.12143,0 15.98062,4.119924 18.41764,12.950481 2.43193,8.812091 -0.41976,21.386649 -5.77331,25.457517 -5.23683,3.982098 -16.61336,3.601859 -23.22739,-0.776324 z m 18.00415,-6.443779 c 6.34941,-5.237374 6.40611,-20.056161 0.19166,-22.958441 -11.21259,-5.711658 -19.15817,3.484174 -21.07723,8.950128 -3.85874,10.990677 10.24161,22.788088 20.88557,14.008313 z" id="path8404" />
    <path style="fill:#000000;stroke-width:1.80137" d="m 134.64696,102.59179 c -5.67774,-4.087273 -7.77013,-9.27939 -8.8302,-13.697145 -1.47803,-6.159539 0.0502,-11.613264 5.52143,-17.553021 4.99409,-5.421741 7.08344,-6.381507 13.89184,-6.381507 10.12143,0 15.98061,4.119924 18.41764,12.950481 2.43193,8.812091 -0.63151,19.692687 -5.98506,23.763562 -5.23683,3.9821 -16.57831,5.55171 -23.01565,0.91763 z m 18.00416,-6.443778 c 6.34941,-5.237374 6.40611,-20.056161 0.19166,-22.958441 -11.21259,-5.711658 -17.46421,4.331155 -19.38327,9.797109 -3.85874,10.990677 8.54765,21.94111 19.19161,13.161332 z" id="path8404-9" />
    <path style="fill:#000000;stroke-width:1.80137" d="m 148.57201,149.55286 c -13.48733,0.77004 -22.77744,-9.25732 -21.35713,-23.05199 0.75498,-7.33254 1.85409,-9.35205 7.30789,-13.42763 8.10768,-6.05879 15.26735,-6.26594 22.50557,-0.65113 7.22308,5.60307 10.9838,16.95936 9.13225,23.42498 -1.8112,6.32464 -9.66965,13.25365 -17.58858,13.70577 z m 10.56474,-15.93919 c 1.95099,-7.99617 -6.87426,-19.90056 -13.58962,-18.50538 -12.4008,2.1367 -13.26082,14.25924 -11.52608,19.78646 3.48812,11.11386 21.84512,12.12346 25.1157,-1.28108 z" id="path8404-5" />
    <path style="fill:#000000;fill-opacity:1;stroke:#000000;stroke-width:3.3;stroke-linecap:round;stroke-linejoin:bevel;stroke-dasharray:none;stroke-opacity:1" d="m 92.064005,79.415376 c 2.774191,-0.011 8.312615,-0.03296 11.575915,-0.04391 3.2633,-0.01096 4.25142,-0.01096 4.91628,-0.01096 0.66485,0 1.00643,0 1.17222,-0.280453 0.16579,-0.280453 0.16579,-0.851358 0.15974,-1.685703 -0.006,-0.834345 -0.0182,-1.93224 -0.0244,-2.711801 -0.006,-0.77956 -0.006,-1.240676 -0.006,-1.537107 0,-0.296432 0,-0.428179 1.64263,0.979269 1.64263,1.407448 4.43459,3.920146 6.18252,5.549558 1.74792,1.629413 2.08949,2.046613 2.2951,2.338142 0.20561,0.29153 0.27881,0.456212 0.39532,0.681193 0.11652,0.224981 0.2751,0.510434 0.39782,0.71329 0.12271,0.202857 0.20811,0.323627 -1.02047,2.111661 -1.22857,1.788035 -4.27609,5.956454 -5.92058,7.82051 -1.64449,1.864055 -2.21786,1.864055 -2.52894,1.864055 -0.31108,0 -0.35987,0 -0.39918,0.0045 -0.0393,0.0045 -0.0637,0.01544 -0.0782,-0.192619 -0.0145,-0.208061 -0.0145,-0.647219 -0.0145,-1.146761 0,-0.499542 0,-1.059468 -0.0119,-1.531267 -0.0119,-0.471799 -0.0363,-0.856062 -0.0667,-1.284182 -0.0304,-0.428119 -0.067,-0.900215 -0.10513,-1.141617 -0.0381,-0.241403 -0.0869,-0.241403 -0.1784,-0.241403 -0.0915,0 -0.22568,0 -0.81124,0 -0.58556,0 -1.62249,0 -3.44017,0 -1.81767,0 -4.4161,0 -6.17894,0.0054 -1.762836,0.0054 -2.689973,0.01641 -3.519456,0.02196 -0.829484,0.0055 -1.561435,0.0055 -2.117137,0.027 -0.555701,0.02145 -0.933875,0.06537 -1.5373,0.10411 -0.603426,0.03874 -1.43297,0.07168 -2.000617,0.10433 -0.567647,0.03265 -0.872625,0.06559 -1.233305,0.131078 -0.36068,0.06549 -0.775452,0.164301 -1.055039,0.21971 -0.279586,0.05541 -0.425976,0.06639 -0.515359,-0.03208 -0.08938,-0.09847 -0.113779,-0.318046 -0.156684,-0.834199 -0.0429,-0.516153 -0.1039,-1.328595 -0.140685,-1.88318 -0.03679,-0.554585 -0.04899,-0.851017 -0.09045,-1.14677 -0.04146,-0.295752 -0.114655,-0.592182 -0.152703,-0.834596 -0.03805,-0.242413 -0.03805,-0.429055 -0.04835,-0.559817 -0.0103,-0.130762 -0.0347,-0.207617 -0.0488,-0.510523 -0.0141,-0.302905 -0.0141,-0.829894 -0.0141,-1.318458 0,-0.488563 0,-0.9387 0.04192,-1.373551 0.04192,-0.434852 0.12731,-0.852053 0.189365,-1.081188 0.06206,-0.229135 0.09865,-0.26207 0.374119,-0.443786 0.275467,-0.181715 0.787832,-0.511084 1.042752,-0.674956 0.254919,-0.163872 0.254913,-0.163875 3.029105,-0.174873 z" id="path639" />
</svg>
