<?xml version="1.0" encoding="UTF-8" standalone="no"?>
<!-- Created with Inkscape (http://www.inkscape.org/) -->

<svg version="1.1" id="svg627" width="170.66667" height="170.66667" viewBox="0 0 170.66667 170.66667"
    xmlns="http://www.w3.org/2000/svg"
    xmlns:svg="http://www.w3.org/2000/svg">
    <defs id="defs631" />
    <path style="fill:none;fill-opacity:1;stroke:#000000;stroke-width:5;stroke-linecap:butt;stroke-linejoin:bevel;stroke-dasharray:none;stroke-opacity:1" d="m 21.261163,120.38011 c -0.09982,-0.59891 -0.426672,-1.20303 -0.299453,-1.79672 4.387306,-20.474094 3.12987,-17.10302 13.175933,-34.137643 3.310667,-5.613741 7.158397,-11.195928 11.379214,-16.170462 0.686492,-0.80908 1.597082,-1.397447 2.395624,-2.096171" id="path10965" />
    <path style="fill:none;fill-opacity:1;stroke:#000000;stroke-width:5;stroke-linecap:butt;stroke-linejoin:bevel;stroke-dasharray:none;stroke-opacity:1" d="m 38.030532,79.055593 c 1.705464,-4.263661 1.198707,-3.511034 7.486325,-8.98359 2.862122,-2.491106 5.969164,-4.739842 9.283043,-6.587966 1.929748,-1.076206 4.160275,-1.502244 6.288513,-2.096171 7.334059,-2.046714 5.908944,-1.168634 13.475385,-2.395624 1.410743,-0.228769 2.794895,-0.598906 4.192342,-0.898359" id="path10967" />
    <path style="fill:none;fill-opacity:1;stroke:#000000;stroke-width:5;stroke-linecap:butt;stroke-linejoin:bevel;stroke-dasharray:none;stroke-opacity:1" d="m 73.066533,59.890601 c 3.194166,0.299453 6.416433,0.380276 9.582496,0.898359 2.341497,0.383154 4.592194,1.195588 6.887419,1.796718 1.89712,0.496865 3.789955,1.010175 5.689607,1.497265 1.993311,0.511105 4.002542,0.960368 5.989065,1.497265 1.7075,0.461489 3.3938,0.998177 5.0907,1.497265 1.6969,0.499088 3.35444,1.15966 5.0907,1.497265 3.40252,0.661602 4.68791,0.598906 7.48632,0.598906" id="path10969" />
    <path style="fill:none;fill-opacity:1;stroke:#000000;stroke-width:5;stroke-linecap:butt;stroke-linejoin:bevel;stroke-dasharray:none;stroke-opacity:1" d="m 151.22377,20.063351 c 0.39927,1.597083 1.09512,3.148219 1.19781,4.791248 0.19934,3.189502 0.21209,6.427979 -0.29945,9.582497 -0.77294,4.766421 -3.37718,12.911858 -5.0907,18.266633 -0.50908,1.590866 -3.80129,12.209607 -5.09071,14.97265 -0.55037,1.179364 -1.39744,2.195989 -2.09617,3.293983" id="path10973" />
    <path style="fill:none;fill-opacity:1;stroke:#000000;stroke-width:5;stroke-linecap:butt;stroke-linejoin:bevel;stroke-dasharray:none;stroke-opacity:1" d="m 150.02596,54.500447 c -0.29946,0.698724 -0.5838,1.404121 -0.89836,2.096171 -2.26352,4.97973 -8.50389,11.848796 -10.18141,13.774838 -1.94918,2.237958 -4.2484,4.163064 -6.58796,5.98906 -2.41952,1.888407 -8.21827,5.295194 -11.37922,5.98906 -2.14713,0.471322 -4.38971,0.299453 -6.58796,0.299453 -5.23237,0 -4.96157,-0.02839 -8.38469,-0.598906" id="path10975" />
    <path style="fill:none;fill-opacity:1;stroke:#000000;stroke-width:5;stroke-linecap:butt;stroke-linejoin:bevel;stroke-dasharray:none;stroke-opacity:1" d="m 119.7812,82.948482 c -7.10796,0 -10.17802,0.242466 -19.16499,-3.593436 -3.398016,-1.450372 -5.855163,-4.51108 -8.684138,-6.887419 -7.340511,-6.641415 -4.100693,-3.899572 -9.582496,-8.384684" id="path10977" />
    <path style="fill:none;fill-opacity:1;stroke:#000000;stroke-width:5;stroke-linecap:butt;stroke-linejoin:bevel;stroke-dasharray:none;stroke-opacity:1" d="M 105.108,84.146294 C 101.41475,82.050123 97.721497,79.953952 94.028243,77.857781 91.532802,76.360516 89.061724,74.821874 86.541918,73.365986 82.50853,71.035584 78.804642,68.612942 73.964892,68.275285 71.148636,68.078802 68.273842,69.00294 65.580208,69.77255" id="path10979" />
    <path style="fill:none;fill-opacity:1;stroke:#000000;stroke-width:5;stroke-linecap:butt;stroke-linejoin:bevel;stroke-dasharray:none;stroke-opacity:1" d="m 74.264345,72.467627 c -0.598906,0 -1.205961,0.09846 -1.796718,0 -0.622713,-0.103785 -1.182197,-0.454313 -1.796718,-0.598906 -2.580812,-0.60725 -4.223625,-0.914175 -6.887419,-0.299453 -1.445896,0.333668 -2.804903,0.970995 -4.192342,1.497265 -1.507781,0.571917 -3.084083,1.010056 -4.491795,1.796718 -4.885209,2.72997 -8.475586,6.03169 -11.97812,10.480855 -4.346615,5.521375 -5.173444,8.652122 -8.384684,14.673194 -1.136126,2.13024 -2.395624,4.19235 -3.593437,6.28852" id="path10981" />
    <path style="fill:none;fill-opacity:1;stroke:#000000;stroke-width:5;stroke-linecap:butt;stroke-linejoin:bevel;stroke-dasharray:none;stroke-opacity:1" d="m 61.387866,63.484037 c -6.681852,5.56821 -3.96604,2.90591 -12.277573,13.774838 -4.063788,5.314185 -10.49057,14.45668 -13.475385,20.362805 -7.259836,14.36521 -6.074357,13.80776 -10.480856,25.4535 -1.74491,4.61155 -3.705145,9.14107 -5.390154,13.77484 -1.235861,3.39862 -3.138328,10.88854 -3.593436,14.07429 -0.211745,1.48222 0,2.99453 0,4.4918 0,3.65388 -0.609057,2.3804 0.598906,4.19234" id="path10983" />
    <path style="fill:none;fill-opacity:1;stroke:#000000;stroke-width:5;stroke-linecap:butt;stroke-linejoin:bevel;stroke-dasharray:none;stroke-opacity:1" d="m 110.19871,74.563798 c 0.5989,-0.09982 1.20134,-0.180378 1.79671,-0.299453 4.80643,-0.961285 -3.05785,0.447082 2.69508,-0.598906 1.32014,-0.240025 4.09865,-0.637292 5.0907,-0.898359 0.82476,-0.217043 1.61629,-0.551987 2.39563,-0.898359 2.0893,-0.928581 3.19739,-1.613186 5.0907,-2.695077 1.53276,-0.875865 3.02972,-1.694709 4.49179,-2.695077 1.12049,-0.766653 2.22231,-1.562097 3.29399,-2.395624 0.72641,-0.564993 1.46997,-1.122348 2.09617,-1.796718 0.67921,-0.731457 1.25445,-1.557585 1.79671,-2.395624 1.08995,-1.684467 2.08786,-3.781211 2.69508,-5.689607 0.37436,-1.176555 0.55412,-2.407719 0.89836,-3.593436 0.55451,-1.909988 1.18613,-3.796799 1.79672,-5.689607 1.43774,-4.456994 0.96719,-2.209733 1.49726,-5.390154" id="path11801" />
</svg>
