<?xml version="1.0" encoding="UTF-8" standalone="no"?>
<!-- Created with Inkscape (http://www.inkscape.org/) -->

<svg version="1.1" id="svg627" width="170.66667" height="170.66667" viewBox="0 0 170.66667 170.66667" xml:space="preserve"
    xmlns="http://www.w3.org/2000/svg"
    xmlns:svg="http://www.w3.org/2000/svg">
    <defs id="defs631" />
    <rect style="fill:#ffffff;fill-opacity:1;stroke:none;stroke-width:73.5693;stroke-linejoin:bevel;stroke-opacity:0" id="rect369" width="144.64474" height="153.43256" x="12.846219" y="11.675618" />


    <path style="fill:#000000;stroke-width:1.32225" d="M 41.360708,167.01331 C 19.856471,166.54918 10.188339,165.86789 8.8022783,164.71898 4.6590028,161.28462 3.8196268,146.64992 4.3145127,86.473854 4.5802685,54.159049 5.2370193,22.902411 5.773959,17.014659 L 6.7502128,6.3096551 21.472526,5.707616 C 59.071251,4.1700925 161.17447,9.174749 164.74009,12.72997 c 2.75094,2.742931 5.4305,86.070019 3.32668,103.45106 -0.79108,6.53558 -1.32556,18.46845 -1.18773,26.51748 0.27897,16.29267 -1.17201,21.78513 -6.3802,24.15122 -3.36187,1.52731 -52.80757,1.5952 -119.138132,0.16358 z M 154.18147,155.21522 c 1.36636,-0.85941 2.39523,-33.36365 2.44756,-77.323438 l 0.066,-55.453394 -15.22805,-1.047837 C 133.09158,20.814241 122.0678,20.140365 116.96971,19.893048 111.87162,19.645731 96.676678,18.827235 83.203165,18.074167 69.729652,17.321101 49.022815,16.359159 37.187972,15.936521 L 15.670077,15.168088 15.36983,34.647065 c -0.385315,24.997907 -0.376439,26.028899 0.662103,76.912845 l 0.875801,42.91037 56.651879,0.72348 c 45.806727,0.58498 79.711577,0.594 80.621857,0.0214 z M 75.920185,131.8091 c -6.088466,-1.29227 -14.922608,-5.0553 -20.071129,-8.54959 -7.203193,-4.88879 -13.695415,-11.42189 -13.695415,-13.78164 0,-2.39176 4.729664,-7.16019 7.101988,-7.16019 0.992901,0 5.780461,2.92587 10.63902,6.50194 10.815514,7.96059 17.717836,9.74518 30.636317,7.92103 12.799424,-1.80733 17.407654,-5.16347 23.822584,-17.349793 4.3084,-8.18459 4.42091,-18.028559 0.29885,-26.148262 -4.15381,-8.18223 -16.145206,-17.228676 -24.008683,-18.112421 -7.05205,-0.792552 -13.980394,0.320861 -17.368683,2.791218 -2.086025,1.520894 -1.449572,1.578339 4.35387,0.392983 5.954678,-1.216247 7.131537,-1.086466 9.496097,1.047193 5.68889,5.133371 2.415138,9.702888 -9.972958,13.92029 -4.319013,1.470364 -11.531225,4.54417 -16.02714,6.830682 -7.944082,4.040162 -8.27219,4.093396 -11.645664,1.889454 C 45.230177,79.226015 44.21287,76.655152 40.727801,59.885987 38.195971,47.703539 38.148096,46.451016 40.1007,43.479652 c 3.780661,-5.753202 12.646366,-2.667951 12.646366,4.400916 0,4.481414 2.180845,4.619234 7.886154,0.498376 2.938019,-2.122088 9.204599,-4.900889 13.925732,-6.175117 16.808137,-4.53649 29.997658,-0.425713 44.467648,13.859232 7.46987,7.374337 9.05886,9.787229 10.95422,16.634065 4.31536,15.588947 1.8834,28.577776 -7.84562,41.902456 -6.46597,8.85565 -14.50628,13.5926 -26.11747,15.38708 -13.94419,2.15504 -17.157613,2.44643 -20.097545,1.82244 z" id="path429" />
</svg>
