<?xml version="1.0" encoding="UTF-8" standalone="no"?>
<!-- Created with Inkscape (http://www.inkscape.org/) -->

<svg version="1.1" id="svg627" width="170.66667" height="170.66667" viewBox="0 0 170.66667 170.66667" xml:space="preserve"
    xmlns="http://www.w3.org/2000/svg"
    xmlns:svg="http://www.w3.org/2000/svg">
    <defs id="defs631" />
    <rect style="fill:#ffffff;fill-opacity:1;stroke:none;stroke-width:73.5693;stroke-linejoin:bevel;stroke-opacity:0" id="rect369" width="144.64474" height="153.43256" x="12.846219" y="11.675618" />

    <path style="fill:#000000;stroke-width:1.33333" d="m 30.878412,168.53868 c -3.3,-0.69106 -7.545765,-0.92726 -9.435034,-0.52488 -5.492516,1.16976 -10.139139,-1.34106 -11.6513723,-6.29587 C 9.0507198,159.28912 8.0778361,148.3019 7.6300418,137.3019 7.1822475,126.3019 6.2605171,107.4019 5.5817519,95.301903 3.6743662,61.299917 3.8486261,10.58495 5.878412,8.9646602 8.0435008,7.236364 44.16221,6.0227172 100.87841,5.7725072 c 51.54126,-0.22738 59.87529,0.4154144 62.77557,4.8418048 2.03965,3.112893 2.84668,31.592508 3.24674,114.576448 0.15522,32.19686 -0.009,34.79062 -2.4049,38 -1.62658,2.17877 -4.47847,3.79494 -7.76111,4.39824 -8.28963,1.52348 -119.122496,2.3598 -125.856298,0.94968 z m 115.333338,-12.79779 8,-1.10565 -0.14896,-36 c -0.0819,-19.800003 -0.23194,-50.423761 -0.33334,-68.052799 l -0.18437,-32.052795 -41,-0.613872 c -22.55,-0.337629 -53.6,-0.590732 -69.000001,-0.562448 l -28,0.05143 0.358987,27.948577 c 0.45602,35.503056 4.648073,108.596617 6.389852,111.414867 0.969784,1.56915 111.777772,0.65052 123.917832,-1.0273 z M 40.280826,141.38514 c -1.882225,-2.26794 -0.527032,-14.21229 1.782648,-15.71181 0.814883,-0.52906 20.381606,-0.67628 43.481606,-0.32718 23.1,0.34911 42.69131,0.63197 43.53623,0.62858 0.84493,-0.003 2.17155,1.81629 2.94804,4.04373 1.68824,4.8429 0.1486,9.82746 -3.66612,11.86904 -1.70214,0.91096 -17.56545,1.4144 -44.567235,1.4144 -34.830375,0 -42.19357,-0.32433 -43.515169,-1.91676 z m 44.207405,-29.789 c -13.898547,-0.29205 -17.881642,-0.7845 -18.456215,-2.28181 -0.402984,-1.05016 -0.827402,-8.08257 -0.943151,-15.627572 L 64.878413,79.96857 57.999532,80.413635 C 50.69672,80.88613 45.545079,79.073108 45.545079,76.030531 c 0,-1.014319 2.755006,-5.043208 6.122234,-8.953088 3.367228,-3.90988 9.079993,-11.68871 12.695036,-17.286287 7.116423,-11.019164 18.787257,-22.927367 21.802677,-22.246117 2.168925,0.490008 24.157954,20.395333 36.439934,32.986849 11.30177,11.586606 11.02885,13.955594 -1.67096,14.503932 -5.10276,0.220323 -9.99474,0.995634 -10.87106,1.722914 -1.12491,0.933596 -1.39486,5.12748 -0.91826,14.266083 0.72432,13.888683 -0.53049,19.588433 -4.4973,20.428163 -1.3396,0.28357 -10.411216,0.348 -20.159149,0.14316 z" id="path327" />
</svg>
