<?xml version="1.0" encoding="UTF-8" standalone="no"?>
<!-- Created with Inkscape (http://www.inkscape.org/) -->

<svg version="1.1" id="svg4781" width="128" height="128" viewBox="0 0 128 128"
    xmlns="http://www.w3.org/2000/svg"
    xmlns:svg="http://www.w3.org/2000/svg">
    <defs id="defs4785" />
    <g id="g4787">
        <rect style="fill:#ffffff;stroke-width:1.88976;stroke-dasharray:1.88976, 11.3386" id="rect8452" width="109.93486" height="105.92039" x="10.036188" y="11.117008" />
        <path id="path6422" style="fill:#000000" d="m 111.62695,4.3125 c -0.66425,0.015211 -1.31326,0.063147 -1.93164,0.1464844 -8.62968,1.1630059 -83.308578,2.4197955 -90.980466,1.53125 C 14.433296,5.4943527 10.276539,5.3414578 9.4765625,5.6484375 8.6765861,5.9554173 7.6239482,7.84757 7.1367188,9.8535156 4.2914668,21.567546 3.5801911,94.180482 6.1367188,112 c 1.6627778,11.5899 1.1537519,11.19771 13.6757812,10.5332 5.878482,-0.31195 19.912511,0.0387 31.1875,0.78125 22.958534,1.51199 51.717,1.36837 60.94336,-0.30468 3.35191,-0.60777 6.48832,-0.86063 6.9707,-0.5625 0.48238,0.29813 1.93506,-0.31591 3.22852,-1.36329 2.25782,-1.82826 2.36696,-2.53545 2.7168,-17.71679 C 125.25141,86.35508 123.2405,9.7884784 122.33984,7.4414062 121.66286,5.6771952 116.2767,4.2060232 111.62695,4.3125 Z m -1.71875,9.917969 c 2.89264,-0.221066 3.1691,3.005778 3.49024,20.84375 0.19235,10.684161 0.61838,32.588297 0.94726,48.675781 0.32889,16.087484 0.27424,29.28999 -0.12304,29.33789 -0.39727,0.0479 -2.97266,0.23169 -5.72266,0.4082 -16.595938,1.06522 -31.147947,1.11436 -47,0.15821 -9.89999,-0.59714 -23.685189,-1.09071 -30.632812,-1.09571 l -12.63086,-0.008 -1.074219,-6.52539 c -2.20204,-13.381722 -4.164345,-53.594746 -2.728515,-55.917968 0.375985,-0.608357 0.683594,-7.985026 0.683594,-16.392578 0,-8.407553 0.311258,-15.772962 0.691406,-16.367188 0.468469,-0.732288 15.190992,-1.279258 45.691406,-1.697265 24.749975,-0.339199 45.9,-0.855146 47,-1.146485 0.52772,-0.139768 0.99497,-0.241856 1.4082,-0.273437 z M 54.132812,29.023438 c -2.724283,0.05939 -5.537804,0.575978 -8.410156,1.554687 C 37.399778,33.414014 30.19668,43.731717 29.25,54.171875 c -0.671735,7.408016 1.407398,13.090141 7.568359,20.695313 1.839999,2.656992 7.358299,6.739093 12.566407,7.832031 1.163845,0.412398 6.457739,0.645345 11.765625,0.517578 l 9.65039,-0.232422 4.277344,5.257813 c 8.440953,10.377827 14.222858,15.760202 16.888672,15.720702 3.841918,-0.0569 9.974393,-5.814048 10.636723,-9.984374 0.52515,-3.306618 0.0302,-4.029819 -10.025395,-14.638672 L 82,68.179688 81.988281,61.839844 C 81.969006,50.550813 78.320379,42.092289 70.496094,35.205078 65.68938,30.974039 60.126237,28.892774 54.132812,29.023438 Z m 3.138672,10.490234 C 65.134052,39.418944 71.795201,48.395906 71.96875,56 c 0.01578,4.529857 -4.131067,13.40508 -7.203125,15.417969 -3.059852,2.004893 -10.350121,2.784297 -14.414063,1.541015 -3.574747,-1.328534 -6.053919,-1.958847 -10.839101,-9.256116 -2.490524,-4.436067 -0.767659,-7.451087 -0.973399,-8.12279 -0.664218,-2.168562 0.921625,-6.530423 3.951172,-9.740234 4.977554,-4.146486 5.90378,-5.779672 14.78125,-6.326172 z" />
    </g>
</svg>
